<?xml version="1.0" standalone="no"?>
<!DOCTYPE svg PUBLIC "-//W3C//DTD SVG 20010904//EN"
 "http://www.w3.org/TR/2001/REC-SVG-20010904/DTD/svg10.dtd">
<svg version="1.0" xmlns="http://www.w3.org/2000/svg"
 width="225.000000pt" height="225.000000pt" viewBox="0 0 225.000000 225.000000"
 preserveAspectRatio="xMidYMid meet">

<g transform="translate(0.000000,225.000000) scale(0.100000,-0.100000)"
fill="#000000" stroke="none">
<path d="M1178 1834 c4 -57 -14 -144 -29 -144 -4 0 -11 5 -15 11 -4 7 -19 -2
-40 -22 -32 -31 -34 -32 -34 -10 0 12 3 20 8 18 4 -3 8 27 9 67 l2 71 -19 -43
c-27 -60 -90 -153 -100 -147 -10 6 -56 -63 -80 -123 -10 -26 -19 -38 -19 -27
0 11 9 40 20 65 11 25 20 47 19 49 -1 2 3 7 8 10 16 10 102 114 102 123 0 5
-26 -21 -57 -59 -32 -37 -57 -71 -56 -75 2 -5 -1 -8 -6 -8 -5 0 -17 -20 -27
-45 -9 -25 -22 -48 -27 -52 -6 -4 -8 0 -4 10 3 8 1 33 -5 53 l-10 38 -12 -29
c-32 -76 -52 -264 -34 -314 13 -35 2 -38 -16 -4 -8 15 -15 21 -16 13 0 -8 7
-28 15 -44 8 -15 12 -32 9 -37 -3 -5 7 -26 21 -46 14 -21 25 -45 25 -55 0 -11
5 -15 14 -12 17 7 73 -24 80 -43 9 -21 -12 -15 -28 9 -10 14 -16 17 -16 8 0
-10 -4 -9 -13 5 -10 13 -16 15 -21 6 -4 -7 5 -26 23 -47 17 -19 31 -40 31 -46
0 -6 3 -9 6 -6 3 4 -2 20 -10 37 -19 35 -20 53 -3 30 13 -16 71 -33 61 -17 -3
5 6 6 23 1 32 -8 47 -8 118 3 46 7 47 8 20 14 -16 4 -34 3 -40 -1 -5 -3 -19
-3 -30 2 -18 7 -17 8 6 8 15 1 29 8 33 16 3 8 14 15 25 15 39 0 51 10 38 31
-6 10 -17 19 -23 19 -6 0 -41 -23 -78 -50 -36 -28 -65 -45 -64 -38 2 7 -3 12
-10 10 -8 -1 -30 12 -50 30 -21 19 -48 41 -61 50 -22 16 -23 21 -17 83 14 134
41 145 86 34 14 -34 30 -64 35 -66 6 -2 19 13 30 33 22 41 113 126 129 121 6
-2 26 -32 45 -67 34 -63 34 -64 17 -94 -12 -21 -14 -31 -5 -37 6 -3 8 -13 5
-20 -4 -8 3 -2 16 14 27 31 35 33 35 13 0 -8 -5 -14 -11 -13 -6 1 -11 -9 -11
-23 0 -17 5 -24 15 -22 9 2 2 -10 -14 -27 -30 -31 -46 -39 -46 -23 0 5 10 14
23 21 18 9 18 11 2 6 -20 -5 -20 -5 -1 10 15 11 16 15 5 15 -15 0 -60 -79 -58
-103 0 -6 4 -2 10 11 10 26 29 21 29 -7 0 -15 7 -11 37 16 20 20 54 47 75 61
22 14 34 28 28 32 -6 4 3 18 21 36 43 40 166 240 155 251 -2 2 -21 -15 -42
-37 -41 -44 -102 -86 -110 -77 -3 3 15 19 39 36 40 27 45 35 51 80 4 28 4 61
0 75 l-6 25 -24 -27 c-27 -32 -32 -18 -5 17 15 19 16 32 9 69 -9 53 -18 67
-18 29 0 -14 -4 -28 -9 -32 -6 -3 -8 5 -6 17 2 13 1 39 -4 58 l-7 35 -14 -50
c-8 -30 -15 -43 -17 -32 -3 10 0 31 6 48 9 25 6 35 -15 67 -14 20 -48 79 -76
130 -27 50 -50 92 -51 92 -1 0 0 -25 1 -56z m58 -99 c-3 -8 -1 -15 4 -17 5 -2
12 -19 15 -38 l5 -35 -13 35 -14 35 -23 -52 c-35 -81 -52 -83 -19 -2 16 39 29
78 29 86 0 8 5 11 11 8 6 -4 8 -13 5 -20z m-130 -80 c-15 -19 -35 -39 -46 -45
-10 -5 -22 -20 -26 -32 -7 -22 -7 -22 -15 -3 -5 14 -8 4 -8 -32 -1 -28 -5 -54
-10 -58 -6 -3 -8 10 -5 32 l6 38 -31 -35 c-17 -19 -45 -55 -62 -80 -21 -31
-29 -37 -24 -20 4 14 14 32 21 41 8 9 16 26 19 37 6 31 38 72 52 67 7 -2 15 1
19 7 5 7 3 8 -5 3 -10 -5 -9 -2 0 13 7 12 18 20 23 19 6 -1 10 4 11 11 0 14
25 33 35 27 4 -2 20 9 35 25 38 39 45 30 11 -15z m199 -34 c5 -16 4 -21 -4
-17 -6 4 -17 -9 -26 -30 -22 -54 -26 -38 -7 28 17 58 24 62 37 19z m-193 -49
c-11 -32 -106 -175 -101 -151 5 21 103 188 108 184 2 -2 -1 -17 -7 -33z m28
-23 c0 -6 -4 -7 -10 -4 -5 3 -10 11 -10 16 0 6 5 7 10 4 6 -3 10 -11 10 -16z
m90 -453 c0 -11 -19 -15 -25 -6 -3 5 1 10 9 10 9 0 16 -2 16 -4z m-386 -62 c3
-8 2 -12 -4 -9 -6 3 -10 10 -10 16 0 14 7 11 14 -7z m173 -30 c-3 -3 -12 -4
-19 -1 -8 3 -5 6 6 6 11 1 17 -2 13 -5z"/>
<path d="M1162 1830 c0 -14 2 -19 5 -12 2 6 2 18 0 25 -3 6 -5 1 -5 -13z"/>
<path d="M1145 1780 c-4 -11 -18 -35 -32 -53 -22 -28 -20 -27 11 5 20 21 36
45 36 53 0 21 -7 19 -15 -5z"/>
<path d="M970 1727 c-22 -19 -74 -77 -69 -77 3 0 25 20 49 45 42 43 52 59 20
32z"/>
<path d="M731 1294 c0 -11 3 -14 6 -6 3 7 2 16 -1 19 -3 4 -6 -2 -5 -13z"/>
<path d="M1120 1169 c0 -19 4 -41 9 -48 6 -10 8 1 4 30 -7 55 -13 63 -13 18z"/>
<path d="M1014 1119 c-19 -22 -19 -22 4 -8 12 8 22 17 22 21 0 12 -6 9 -26
-13z"/>
<path d="M942 1095 c0 -16 2 -22 5 -12 2 9 2 23 0 30 -3 6 -5 -1 -5 -18z"/>
<path d="M951 974 c0 -11 3 -14 6 -6 3 7 2 16 -1 19 -3 4 -6 -2 -5 -13z"/>
<path d="M956 935 c4 -8 14 -15 23 -14 10 0 11 2 3 6 -6 2 -10 9 -6 14 3 5 -2
9 -10 9 -10 0 -13 -6 -10 -15z"/>
<path d="M1075 919 c-62 -48 -82 -53 -116 -28 -20 14 -27 16 -23 6 3 -8 13
-17 23 -20 19 -5 45 -63 32 -71 -4 -3 -19 1 -34 9 -15 8 -27 10 -27 6 0 -4 12
-13 26 -20 36 -16 57 1 44 35 -8 20 -6 26 8 31 9 3 29 15 45 25 15 11 27 16
27 13 0 -9 -42 -68 -55 -77 -5 -4 1 -8 14 -8 13 0 22 3 18 6 -5 6 33 85 54
110 17 21 8 16 -36 -17z"/>
<path d="M901 922 c19 -30 1 -58 -34 -54 -14 1 -29 -3 -33 -9 -5 -8 -3 -9 7
-4 8 5 3 -4 -11 -19 -21 -23 -22 -29 -10 -37 12 -9 12 -10 -2 -5 -20 6 -25
-10 -5 -17 7 -3 4 -6 -6 -6 -24 -1 -12 -20 21 -32 28 -11 168 -13 229 -4 30 4
34 3 18 -5 -16 -8 -13 -9 15 -4 42 7 45 7 90 -1 19 -4 41 -7 48 -7 16 -2 14
-75 -2 -97 -8 -11 -8 -13 2 -7 7 4 12 2 12 -8 0 -12 -40 -32 -90 -43 -45 -11
-107 -9 -153 3 -35 9 -53 10 -58 3 -4 -6 -34 -9 -75 -7 -39 1 -90 -3 -116 -11
-56 -16 -78 -5 -78 39 0 49 20 86 60 111 22 13 40 28 40 32 0 10 -42 -12 -52
-27 -5 -7 -8 -7 -8 -1 0 6 7 21 16 34 9 13 17 33 18 44 1 21 36 34 36 14 0 -7
4 -6 10 3 6 9 6 18 -1 25 -6 6 -13 5 -19 -5 -5 -8 -10 -12 -10 -7 0 4 -11 0
-25 -9 -14 -9 -23 -20 -20 -24 2 -4 -8 -18 -23 -31 l-27 -24 24 28 c14 15 20
27 14 27 -20 0 -62 -60 -69 -96 -4 -20 -4 -57 -1 -83 3 -26 2 -65 -3 -87 -4
-21 -11 -65 -15 -96 -6 -54 -5 -58 14 -58 11 0 22 8 24 18 4 16 5 16 6 0 1
-11 9 -18 21 -18 18 0 19 5 14 48 -3 26 -10 61 -14 79 -10 39 -6 43 31 33 21
-6 31 -5 35 3 5 15 34 19 144 21 95 1 180 -18 180 -41 0 -11 -6 -13 -22 -9
-50 15 -75 19 -116 18 -30 -1 -40 3 -35 11 5 9 3 9 -8 1 -20 -15 -61 -16 -52
-1 4 7 1 7 -10 -1 -9 -8 -22 -10 -28 -6 -8 4 -9 3 -5 -5 5 -8 0 -10 -18 -7
-15 3 -24 1 -21 -4 3 -4 -1 -10 -7 -13 -7 -2 10 -4 39 -3 28 1 49 4 46 9 -8
13 14 7 26 -7 13 -15 -1 -32 -18 -21 -5 3 -12 1 -16 -5 -3 -5 -16 -10 -28 -10
-38 0 -87 -37 -87 -65 0 -24 2 -25 23 -13 14 7 78 13 175 15 130 3 152 1 152
-12 0 -8 7 -15 15 -15 10 0 15 10 15 29 0 15 3 50 7 76 5 40 10 49 35 57 41
14 29 20 -14 6 -26 -8 -40 -8 -54 1 -17 11 -16 12 8 7 15 -3 39 -1 55 5 15 6
49 13 75 15 40 3 48 0 63 -22 16 -25 12 -50 -7 -38 -7 4 -8 2 -4 -5 6 -9 11
-9 22 0 26 22 16 -16 -16 -56 -16 -21 -30 -43 -29 -49 0 -6 6 -2 14 9 23 33
47 61 39 46 -3 -7 -1 -17 6 -21 9 -6 9 -12 0 -29 -9 -17 -14 -20 -25 -11 -9 8
-15 8 -20 0 -3 -6 -10 -8 -15 -5 -5 3 -11 1 -15 -5 -4 -6 8 -9 31 -8 30 3 43
10 65 42 l28 38 17 -41 c9 -23 19 -40 21 -37 3 2 0 14 -7 25 -18 34 -50 170
-44 186 12 31 24 13 24 -38 0 -29 9 -81 21 -115 l21 -62 68 0 c53 0 71 4 78
16 8 15 10 15 15 0 4 -11 19 -16 46 -16 l40 0 -14 35 c-8 19 -20 67 -25 107
-7 49 -20 88 -39 119 -15 25 -30 65 -34 88 -9 73 -71 119 -160 123 -20 1 -34
5 -31 9 2 4 0 10 -5 13 -5 4 -8 -2 -7 -11 2 -10 -7 -34 -20 -53 -54 -83 -58
-205 -7 -268 29 -36 29 -38 11 -56 -10 -11 -18 -15 -18 -10 0 6 5 15 11 21 9
9 5 20 -15 43 -34 41 -39 64 -34 149 3 39 1 68 -4 65 -13 -8 -79 16 -72 27 3
5 10 7 15 4 5 -4 9 -1 9 4 0 6 16 28 35 49 l35 39 -28 24 c-24 21 -25 22 -8 2
18 -22 18 -23 -8 -33 -15 -5 -48 -11 -74 -11 l-47 -2 40 -7 40 -6 -40 -19
c-80 -37 -335 -31 -296 8 6 6 11 19 11 30 0 10 4 16 10 12 16 -10 50 18 50 41
0 12 -7 28 -17 35 -15 13 -15 12 -2 -9z m333 -93 c-16 -17 -42 -40 -59 -51
-16 -11 -6 3 24 31 61 57 81 68 35 20z m145 -13 c-2 -2 -15 -9 -29 -16 -23
-12 -24 -12 -11 3 7 10 20 17 29 17 8 0 13 -2 11 -4z m-20 -170 c-3 -3 -11 5
-18 17 -13 21 -12 21 5 5 10 -10 16 -20 13 -22z m71 -38 c0 -6 -6 -5 -15 2 -8
7 -15 14 -15 16 0 2 7 1 15 -2 8 -4 15 -11 15 -16z m74 -127 l-9 -66 -5 65
c-3 36 0 76 5 90 l10 24 3 -24 c2 -13 0 -53 -4 -89z m-264 95 c0 -2 -7 -7 -16
-10 -8 -3 -12 -2 -9 4 6 10 25 14 25 6z m137 -18 c-3 -8 -6 -5 -6 6 -1 11 2
17 5 13 3 -3 4 -12 1 -19z m-380 -4 c-3 -3 -12 -4 -19 -1 -8 3 -5 6 6 6 11 1
17 -2 13 -5z m40 -10 c-3 -3 -12 -4 -19 -1 -8 3 -5 6 6 6 11 1 17 -2 13 -5z
m50 -81 c-3 -10 -5 -2 -5 17 0 19 2 27 5 18 2 -10 2 -26 0 -35z m-114 24 c-3
-5 3 -6 16 -2 30 9 81 -4 81 -21 0 -8 -11 -15 -27 -15 -24 -2 -25 -2 -5 -6 13
-3 22 -12 22 -23 0 -17 -9 -18 -93 -18 -89 1 -93 2 -93 23 0 20 5 23 48 23 33
0 46 -4 41 -12 -4 -7 -2 -7 7 1 7 6 20 9 29 6 13 -5 13 -3 4 7 -6 7 -22 13
-35 14 -13 1 -22 7 -20 15 1 7 -2 10 -8 6 -6 -3 -8 -10 -6 -14 3 -3 -4 -7 -14
-7 -10 0 -17 4 -14 7 2 4 0 11 -6 14 -6 4 -9 1 -8 -6 2 -6 -4 -14 -12 -17 -8
-2 -12 -1 -8 3 4 5 3 13 -2 20 -7 9 5 12 50 12 35 0 57 -4 53 -10z m354 -47
c-6 -11 -15 -20 -19 -20 -12 0 -9 25 4 38 17 17 29 4 15 -18z m-670 -27 c-3
-10 -5 -4 -5 12 0 17 2 24 5 18 2 -7 2 -21 0 -30z m209 9 c-2 -13 -16 -19 -57
-24 -29 -3 -57 -4 -61 -2 -5 3 -8 0 -8 -5 0 -6 -4 -11 -10 -11 -18 0 -10 29
11 41 22 12 109 28 121 22 3 -2 5 -11 4 -21z m211 -34 c-2 -13 -4 -5 -4 17 -1
22 1 32 4 23 2 -10 2 -28 0 -40z m334 15 c13 -16 12 -17 -3 -4 -17 13 -22 21
-14 21 2 0 10 -8 17 -17z"/>
<path d="M894 428 c-6 -9 -4 -10 26 -11 11 -1 19 3 18 8 -4 12 -37 14 -44 3z"/>
<path d="M796 422 c-3 -5 1 -9 9 -9 8 0 12 4 9 9 -3 4 -7 8 -9 8 -2 0 -6 -4
-9 -8z"/>
<path d="M1171 903 c1 -18 3 -22 6 -10 3 11 11 16 19 13 21 -8 17 2 -6 14 -18
10 -20 8 -19 -17z"/>
<path d="M1100 889 c0 -2 -4 -19 -9 -37 -5 -17 -6 -32 -1 -32 8 0 21 62 14 69
-2 2 -4 2 -4 0z"/>
<path d="M1276 868 c3 -5 10 -6 15 -3 13 9 11 12 -6 12 -8 0 -12 -4 -9 -9z"/>
<path d="M931 854 c0 -11 3 -14 6 -6 3 7 2 16 -1 19 -3 4 -6 -2 -5 -13z"/>
<path d="M898 823 c7 -3 16 -2 19 1 4 3 -2 6 -13 5 -11 0 -14 -3 -6 -6z"/>
<path d="M1270 779 c-7 -11 -10 -23 -7 -25 2 -2 9 7 15 21 14 30 7 33 -8 4z"/>
<path d="M771 764 c0 -11 3 -14 6 -6 3 7 2 16 -1 19 -3 4 -6 -2 -5 -13z"/>
<path d="M993 713 c9 -2 25 -2 35 0 9 3 1 5 -18 5 -19 0 -27 -2 -17 -5z"/>
<path d="M872 690 c0 -14 2 -19 5 -12 2 6 2 18 0 25 -3 6 -5 1 -5 -13z"/>
<path d="M1142 676 c-12 -18 -22 -36 -22 -41 0 -4 11 9 25 30 15 20 25 39 23
41 -2 1 -13 -12 -26 -30z"/>
<path d="M861 644 c0 -11 3 -14 6 -6 3 7 2 16 -1 19 -3 4 -6 -2 -5 -13z"/>
<path d="M1187 649 c7 -7 15 -10 18 -7 3 3 -2 9 -12 12 -14 6 -15 5 -6 -5z"/>
<path d="M881 603 c-1 -30 2 -33 27 -32 22 1 23 2 5 6 -14 3 -23 13 -26 31 -4
24 -4 24 -6 -5z"/>
<path d="M852 595 c0 -16 2 -22 5 -12 2 9 2 23 0 30 -3 6 -5 -1 -5 -18z"/>
<path d="M1096 595 c-9 -26 -7 -32 5 -12 6 10 9 21 6 23 -2 3 -7 -2 -11 -11z"/>
<path d="M1170 540 c0 -5 4 -10 9 -10 6 0 13 5 16 10 3 6 -1 10 -9 10 -9 0
-16 -4 -16 -10z"/>
<path d="M1216 528 c3 -5 10 -6 15 -3 13 9 11 12 -6 12 -8 0 -12 -4 -9 -9z"/>
<path d="M1161 497 c-13 -21 -12 -21 5 -5 10 10 16 20 13 22 -3 3 -11 -5 -18
-17z"/>
<path d="M702 455 c0 -16 2 -22 5 -12 2 9 2 23 0 30 -3 6 -5 -1 -5 -18z"/>
<path d="M1136 453 c-6 -14 -5 -15 5 -6 7 7 10 15 7 18 -3 3 -9 -2 -12 -12z"/>
<path d="M1177 426 c-14 -21 -14 -24 -2 -22 9 1 21 8 28 16 10 10 9 11 -2 5
-11 -6 -13 -4 -8 8 9 24 2 21 -16 -7z"/>
<path d="M1114 418 c-4 -7 -4 -10 1 -6 4 4 15 2 24 -5 14 -11 14 -10 2 6 -16
20 -18 21 -27 5z"/>
<path d="M1267 413 c-4 -3 -7 -11 -7 -17 0 -6 5 -5 12 2 6 6 9 14 7 17 -3 3
-9 2 -12 -2z"/>
<path d="M793 363 c20 -2 54 -2 75 0 20 2 3 4 -38 4 -41 0 -58 -2 -37 -4z"/>
</g>
</svg>
