<?xml version="1.0" standalone="no"?>
<!DOCTYPE svg PUBLIC "-//W3C//DTD SVG 20010904//EN"
 "http://www.w3.org/TR/2001/REC-SVG-20010904/DTD/svg10.dtd">
<svg version="1.0" xmlns="http://www.w3.org/2000/svg"
 width="375.000000pt" height="360.000000pt" viewBox="0 0 375.000000 360.000000"
 preserveAspectRatio="xMidYMid meet">

<g transform="translate(0.000000,360.000000) scale(0.100000,-0.100000)"
fill="#000000" stroke="none">
<path d="M1706 3403 c-22 -4 -26 -7 -15 -14 11 -7 11 -9 -3 -9 -10 0 -18 4
-18 9 0 6 -10 7 -22 4 -13 -2 -48 -9 -78 -14 -110 -17 -305 -80 -293 -94 5 -4
2 -5 -4 -1 -14 8 -74 -24 -67 -35 2 -4 -1 -11 -7 -15 -8 -4 -9 -3 -5 4 4 7 1
12 -8 12 -25 0 -46 -12 -40 -22 3 -5 0 -8 -7 -6 -8 1 -40 -12 -72 -31 -54 -31
-57 -34 -40 -48 17 -13 16 -13 -4 -3 -18 8 -28 7 -48 -6 -14 -9 -22 -21 -18
-27 3 -5 1 -7 -4 -4 -21 13 -239 -176 -226 -196 3 -6 1 -7 -4 -4 -11 7 -45
-25 -42 -39 4 -24 -2 -35 -18 -30 -21 6 -98 -88 -87 -106 4 -6 3 -8 -3 -5 -5
3 -19 -6 -30 -21 -29 -41 -38 -56 -26 -49 14 9 12 -25 -3 -48 -16 -23 -19 -12
-4 16 6 11 7 19 1 19 -11 0 -25 -30 -22 -49 1 -7 -2 -10 -7 -7 -10 6 -27 -21
-24 -36 1 -5 -2 -8 -6 -8 -13 0 -33 -48 -22 -55 12 -8 23 12 14 28 -4 6 -4 9
1 5 4 -4 14 0 22 10 8 9 3 -4 -9 -29 -17 -34 -25 -42 -29 -30 -5 12 -9 10 -21
-14 -8 -17 -13 -37 -10 -45 2 -8 1 -12 -3 -7 -8 7 -21 -22 -50 -113 -18 -55
-18 -53 -3 -44 6 4 2 -8 -10 -28 -12 -19 -19 -37 -16 -41 3 -3 1 -14 -4 -24
-18 -34 -32 -136 -32 -248 0 -52 -3 -66 -11 -55 -8 11 -9 -14 -4 -86 5 -93 10
-123 30 -179 6 -17 5 -17 -5 -5 -9 12 -10 9 -6 -15 4 -16 9 -46 12 -65 4 -19
10 -43 15 -52 5 -9 9 -27 9 -40 0 -18 32 -120 64 -203 2 -5 7 -20 11 -32 4
-13 11 -21 15 -18 9 6 39 -33 59 -75 11 -22 10 -23 -2 -8 -8 10 -17 15 -21 11
-4 -4 -4 0 -1 8 3 9 -4 23 -17 34 -13 11 -17 13 -10 5 6 -8 12 -22 12 -31 0
-10 6 -24 13 -31 7 -7 15 -17 16 -23 2 -5 14 -28 28 -50 22 -36 24 -37 18 -12
-4 19 -2 26 5 22 6 -4 10 -21 8 -39 -2 -35 38 -100 55 -89 6 3 7 1 3 -5 -10
-16 84 -134 101 -127 8 3 11 0 8 -6 -9 -13 25 -50 38 -42 5 3 7 1 4 -4 -14
-23 261 -251 285 -237 6 4 8 3 5 -3 -8 -13 103 -81 121 -75 7 2 9 9 5 15 -4 6
9 2 28 -10 19 -11 33 -25 32 -30 -2 -8 62 -51 77 -52 3 0 21 -7 40 -15 19 -8
53 -18 75 -22 48 -10 46 -9 65 -17 28 -10 143 -33 245 -48 93 -14 364 -7 440
11 56 13 93 23 180 45 33 8 71 18 83 20 13 3 35 13 48 22 13 8 24 12 24 9 0
-4 18 3 40 15 21 12 36 27 33 32 -4 6 1 8 12 4 20 -8 107 31 99 45 -3 4 2 8
11 8 9 0 30 7 46 16 29 15 30 16 12 30 -17 14 -17 14 4 4 19 -9 32 -4 88 37
47 34 62 49 53 56 -9 6 -7 7 5 3 13 -4 38 13 87 61 38 36 67 70 63 76 -3 6 -1
7 4 4 11 -7 45 25 42 39 -3 20 2 34 12 34 8 0 8 -5 -1 -15 -7 -8 -8 -15 -2
-15 5 0 15 7 22 15 10 12 10 18 -1 33 -12 15 -12 16 2 5 13 -11 21 -7 48 27
18 22 29 45 25 52 -4 6 -3 8 3 5 12 -8 56 50 48 63 -3 5 1 12 8 17 8 4 22 20
31 35 15 22 15 30 4 47 -9 16 -10 24 -2 29 6 4 21 25 33 47 11 22 21 32 21 23
0 -9 -5 -20 -11 -23 -6 -4 -8 -14 -4 -23 3 -9 3 -13 -1 -9 -4 4 -14 -2 -22
-14 -10 -15 -11 -24 -4 -31 8 -8 16 1 28 28 9 21 27 62 40 89 30 65 71 188 83
245 5 25 16 72 25 105 19 73 19 78 4 69 -7 -5 -9 -2 -5 9 19 50 28 104 22 139
-5 29 -4 39 4 34 7 -5 11 9 11 44 0 28 -4 49 -9 46 -5 -4 -9 17 -8 46 1 78
-11 175 -30 248 -3 14 -5 29 -4 33 0 4 -10 27 -24 51 -27 46 -35 78 -9 36 9
-14 13 -17 10 -7 -4 11 -9 30 -12 44 -4 16 -11 22 -22 18 -11 -4 -12 -2 -4 8
12 14 -9 93 -21 80 -4 -3 -7 4 -7 16 0 12 -5 32 -12 44 -11 21 -11 21 -18 2
-6 -18 -7 -18 -12 3 -3 12 -3 20 1 19 11 -4 14 8 7 31 -4 12 -12 22 -17 22 -5
0 -8 6 -7 12 2 8 -5 12 -17 10 -15 -2 -17 -1 -6 6 11 8 10 15 -5 41 -10 17
-24 29 -30 27 -6 -2 -11 2 -11 10 0 7 4 11 9 8 15 -9 8 3 -21 39 -15 20 -32
33 -36 29 -5 -4 -5 -2 -1 5 9 16 -65 113 -81 108 -7 -3 -10 2 -6 12 5 13 2 15
-11 10 -12 -5 -16 -2 -14 11 2 10 -3 16 -10 14 -8 -1 -11 2 -8 7 7 11 -71 87
-85 84 -5 -2 -8 0 -6 5 5 16 -144 142 -168 142 -4 0 -13 7 -20 16 -10 14 -16
14 -36 5 -21 -11 -22 -11 -6 2 16 13 13 17 -41 49 -54 33 -90 40 -75 15 4 -6
-9 -2 -28 10 -19 11 -33 25 -32 31 4 15 -54 45 -70 36 -7 -4 -9 -3 -4 1 4 5
-10 15 -30 22 -78 29 -127 42 -134 37 -5 -3 -19 2 -31 10 -13 8 -54 20 -93 26
-38 6 -95 15 -125 20 -56 8 -311 11 -364 3z m127 -10 c-7 -2 -19 -2 -25 0 -7
3 -2 5 12 5 14 0 19 -2 13 -5z m114 1 c-3 -3 -12 -4 -19 -1 -8 3 -5 6 6 6 11
1 17 -2 13 -5z m58 -4 c-3 -5 -14 -10 -23 -9 -14 0 -13 2 3 9 27 11 27 11 20
0z m-58 -16 c-3 -3 -12 -4 -19 -1 -8 3 -5 6 6 6 11 1 17 -2 13 -5z m-137 -57
c0 -6 -7 -2 -15 9 -26 34 -16 3 16 -50 57 -95 75 -116 89 -103 10 10 12 8 6
-6 -3 -10 -6 -25 -6 -33 0 -26 -53 -13 -67 16 -10 20 -20 25 -48 25 -19 0 -35
-3 -35 -7 0 -5 7 -8 15 -8 8 0 15 -4 15 -10 0 -6 -9 -6 -25 0 -19 7 -25 7 -24
-3 3 -20 -12 -47 -27 -47 -8 0 -14 -5 -14 -11 0 -8 -5 -8 -15 1 -19 16 -19 34
0 50 8 7 12 16 9 21 -3 5 -1 9 3 9 5 0 15 17 23 38 22 54 23 59 11 42 -12 -17
-14 -10 -5 14 3 9 10 13 16 10 5 -3 8 6 6 22 -2 21 3 31 22 40 25 13 50 4 50
-19z m297 27 c-3 -3 -12 -4 -19 -1 -8 3 -5 6 6 6 11 1 17 -2 13 -5z m-647 -14
c-14 -4 -34 -8 -45 -8 -16 0 -15 2 5 8 14 4 34 8 45 8 16 0 15 -2 -5 -8z m666
-6 c8 3 11 0 8 -8 -3 -7 3 -22 13 -32 17 -17 17 -17 1 -11 -14 5 -18 1 -18
-14 0 -11 -7 -22 -15 -26 -14 -5 -14 -8 1 -24 12 -13 20 -16 24 -8 5 7 9 5 13
-5 4 -9 1 -15 -6 -13 -6 1 -13 -8 -15 -20 -2 -16 2 -23 13 -23 9 0 13 -5 10
-10 -4 -6 -10 -8 -14 -5 -5 2 -25 -4 -45 -15 -29 -14 -33 -19 -19 -23 10 -2
-4 -2 -32 0 -53 5 -78 19 -58 31 10 6 19 46 27 127 2 17 -1 36 -7 43 -7 9 -2
16 22 25 17 6 31 15 31 19 0 4 12 3 27 -3 14 -5 32 -8 39 -5z m-601 -3 c-12
-12 -65 -26 -65 -17 0 3 15 10 33 15 43 12 42 12 32 2z m822 3 c-3 -3 -12 -4
-19 -1 -8 3 -5 6 6 6 11 1 17 -2 13 -5z m-807 -45 c0 -6 -16 -17 -35 -25 -38
-15 -43 -33 -21 -73 7 -13 11 -33 8 -44 -3 -14 -1 -18 6 -13 7 4 12 1 12 -8 0
-11 9 -16 28 -16 21 0 28 -5 28 -19 0 -11 -3 -19 -6 -19 -3 1 -12 -1 -20 -5
-28 -10 -69 -14 -64 -6 3 5 1 9 -4 9 -6 0 -16 24 -22 53 -7 28 -17 57 -22 64
-5 7 -7 17 -4 22 10 16 -10 22 -37 12 -19 -7 -28 -6 -37 4 -14 16 -5 35 16 35
8 0 14 5 14 11 0 5 3 8 8 5 4 -2 37 4 72 14 65 18 80 17 80 -1z m27 -11 c-3
-8 -6 -5 -6 6 -1 11 2 17 5 13 3 -3 4 -12 1 -19z m765 -13 c-2 -11 -4 -28 -5
-37 -1 -9 -3 -15 -6 -12 -3 2 -15 -21 -27 -53 l-21 -58 21 -8 c12 -5 32 -11
46 -13 32 -7 38 -13 21 -23 -7 -5 -11 -12 -9 -17 1 -5 -10 -10 -27 -11 -16 -1
-23 0 -15 4 10 4 -3 12 -35 23 -37 12 -50 22 -50 36 0 10 -4 22 -10 26 -6 4
-2 8 8 8 11 0 17 8 17 24 0 14 4 27 10 31 5 3 6 13 3 22 -4 11 -3 14 6 9 8 -5
11 -3 10 5 -1 8 3 27 9 42 15 35 59 36 54 2z m-1082 5 c0 -5 -2 -10 -4 -10 -3
0 -8 5 -11 10 -3 6 -1 10 4 10 6 0 11 -4 11 -10z m1003 -15 c-3 -9 -8 -14 -10
-11 -3 3 -2 9 2 15 9 16 15 13 8 -4z m-96 -17 c-3 -8 -6 -5 -6 6 -1 11 2 17 5
13 3 -3 4 -12 1 -19z m203 8 c0 -3 -4 -8 -10 -11 -5 -3 -10 -1 -10 4 0 6 5 11
10 11 6 0 10 -2 10 -4z m-443 -28 c-3 -8 -6 -5 -6 6 -1 11 2 17 5 13 3 -3 4
-12 1 -19z m454 -1 c-10 -9 -11 -8 -5 6 3 10 9 15 12 12 3 -3 0 -11 -7 -18z
m-1086 4 c3 -5 2 -12 -3 -15 -5 -3 -9 1 -9 9 0 17 3 19 12 6z m1363 -16 c-3
-3 -9 2 -12 12 -6 14 -5 15 5 6 7 -7 10 -15 7 -18z m-1245 -5 c-3 -11 -10 -23
-16 -27 -5 -3 -8 -2 -5 3 3 5 8 17 11 27 9 24 16 22 10 -3z m-179 -6 c18 -18
19 -24 7 -43 -5 -7 -14 -10 -20 -7 -7 5 -11 -2 -12 -16 0 -22 -1 -22 -9 -3 -8
18 -9 18 -9 -5 -1 -15 -6 -31 -12 -37 -7 -7 -9 -23 -5 -38 4 -15 9 -25 12 -22
3 3 14 -3 25 -14 10 -10 25 -19 32 -19 9 0 9 2 -1 9 -11 7 -11 9 2 14 9 4 16
1 16 -6 0 -7 10 0 21 16 25 33 49 35 49 5 0 -12 10 -32 22 -45 12 -13 17 -23
12 -23 -5 0 -15 9 -22 20 -12 19 -13 19 -51 -8 -26 -18 -35 -30 -27 -35 6 -5
2 -6 -9 -2 -11 5 -33 10 -48 13 -16 2 -34 13 -40 23 -9 14 -14 16 -26 6 -12
-10 -13 -9 -4 7 7 14 5 28 -8 57 -19 37 -19 38 4 81 13 26 35 50 55 59 20 11
28 19 20 22 -9 4 -9 6 -1 6 6 1 19 -6 27 -15z m206 -28 c0 -3 -4 -8 -10 -11
-5 -3 -10 -1 -10 4 0 6 5 11 10 11 6 0 10 -2 10 -4z m1216 -21 c38 -16 42 -41
5 -39 -11 0 -21 -4 -21 -9 0 -5 -7 -4 -15 3 -9 7 -19 10 -22 6 -4 -4 -1 -12 7
-17 13 -9 12 -10 -2 -5 -10 3 -20 1 -23 -4 -4 -6 1 -10 9 -10 9 0 16 -5 16
-11 0 -6 6 -9 13 -6 6 2 11 11 9 18 -2 8 0 10 4 6 24 -24 7 -51 -38 -59 -19
-4 -25 -1 -21 9 3 8 0 11 -9 8 -20 -8 -16 -65 5 -80 10 -7 17 -17 17 -24 0 -6
5 -11 11 -11 5 0 7 -5 3 -12 -6 -9 -9 -9 -12 0 -2 7 -12 12 -22 12 -9 0 -23 7
-30 15 -7 9 -22 13 -34 10 -12 -3 -16 -3 -11 0 6 3 10 33 9 68 -1 73 3 90 23
83 11 -4 11 -1 3 14 -7 14 -7 20 0 20 5 0 10 -5 10 -12 0 -6 10 -2 23 9 18 17
35 27 55 32 1 1 19 -6 38 -14z m-997 -29 c0 -7 -2 -6 -6 2 -7 18 -23 15 -23
-5 0 -9 -3 -14 -6 -10 -3 3 -3 15 1 27 5 17 10 19 21 9 8 -6 14 -17 13 -23z
m168 18 c-3 -3 -12 -4 -19 -1 -8 3 -5 6 6 6 11 1 17 -2 13 -5z m313 -24 c0 -5
-5 -10 -11 -10 -5 0 -7 5 -4 10 3 6 8 10 11 10 2 0 4 -4 4 -10z m240 -10 c0
-5 -2 -10 -4 -10 -3 0 -8 5 -11 10 -3 6 -1 10 4 10 6 0 11 -4 11 -10z m345 0
c3 -6 -1 -7 -9 -4 -9 3 -16 1 -16 -5 0 -6 -5 -11 -11 -11 -8 0 -8 5 1 15 14
17 26 19 35 5z m-535 -15 c6 -8 10 -20 7 -27 -4 -8 -6 -7 -6 4 -1 9 -9 22 -18
27 -10 6 -13 11 -7 11 6 0 17 -7 24 -15z m-430 -10 c-7 -9 -15 -13 -19 -10 -3
3 1 10 9 15 21 14 24 12 10 -5z m338 -4 c11 -7 10 -9 -3 -14 -9 -4 -14 -3 -10
2 3 5 -1 12 -7 14 -7 3 -8 6 -3 6 6 0 16 -3 23 -8z m-1198 -26 c0 -8 -2 -15
-4 -15 -2 0 -6 7 -10 15 -3 8 -1 15 4 15 6 0 10 -7 10 -15z m310 5 c12 -7 10
-9 -8 -7 -12 0 -22 5 -22 9 0 11 12 10 30 -2z m-220 -25 c0 -7 -6 -18 -14 -24
-13 -11 -15 -55 -3 -67 2 -3 20 5 38 16 29 18 30 21 9 15 -21 -5 -22 -4 -7 5
9 6 21 8 27 5 12 -7 -5 -54 -25 -69 -20 -15 -5 -35 29 -42 19 -3 25 -1 20 7
-4 7 -2 10 7 7 8 -3 23 -2 34 2 16 6 21 4 22 -10 1 -11 -7 -20 -20 -24 -17 -5
-19 -8 -8 -15 11 -7 8 -9 -10 -10 -13 0 -38 -2 -56 -4 -18 -2 -30 0 -27 5 3 4
1 8 -5 8 -5 0 -13 -4 -16 -10 -3 -5 -12 -10 -18 -10 -7 0 -4 5 6 11 16 9 14
14 -15 52 -18 23 -36 43 -39 45 -11 5 0 73 17 101 17 29 54 33 54 6z m-104
-44 c-4 -6 -13 -11 -19 -10 -9 0 -9 2 1 6 18 7 15 21 -8 28 -11 4 -17 11 -14
17 4 6 14 2 26 -10 11 -11 17 -25 14 -31z m134 39 c0 -5 -5 -10 -11 -10 -5 0
-7 5 -4 10 3 6 8 10 11 10 2 0 4 -4 4 -10z m1197 4 c-3 -3 -12 -4 -19 -1 -8 3
-5 6 6 6 11 1 17 -2 13 -5z m-1297 -14 c0 -5 -4 -10 -10 -10 -5 0 -10 5 -10
10 0 6 5 10 10 10 6 0 10 -4 10 -10z m1430 0 c-19 -13 -30 -13 -30 0 0 6 10
10 23 10 18 0 19 -2 7 -10z m575 0 c-3 -5 -12 -10 -18 -10 -7 0 -6 4 3 10 19
12 23 12 15 0z m-302 -7 c-7 -2 -19 -2 -25 0 -7 3 -2 5 12 5 14 0 19 -2 13 -5z
m-1613 -13 c0 -5 -10 -10 -22 -9 -22 0 -22 1 -3 9 11 5 21 9 23 9 1 1 2 -3 2
-9z m1630 -10 c0 -5 -2 -10 -4 -10 -3 0 -8 5 -11 10 -3 6 -1 10 4 10 6 0 11
-4 11 -10z m315 -1 c11 -16 1 -19 -13 -3 -7 8 -8 14 -3 14 5 0 13 -5 16 -11z
m-2048 -21 c2 -17 0 -19 -7 -8 -5 8 -6 18 -4 22 8 12 10 10 11 -14z m-117 -3
c-7 -9 -15 -13 -19 -10 -3 3 1 10 9 15 21 14 24 12 10 -5z m198 -10 c-3 -3 -9
2 -12 12 -6 14 -5 15 5 6 7 -7 10 -15 7 -18z m1632 11 c0 -3 -4 -8 -10 -11 -5
-3 -10 -1 -10 4 0 6 5 11 10 11 6 0 10 -2 10 -4z m403 -17 l22 -21 -22 11
c-12 6 -25 16 -28 21 -11 17 5 11 28 -11z m-88 -10 c-4 -5 1 -9 10 -9 9 0 33
-18 52 -40 20 -22 41 -37 47 -33 6 3 8 2 3 -2 -4 -5 3 -19 15 -32 19 -20 20
-26 8 -33 -10 -6 -25 -3 -45 10 -33 20 -46 17 -64 -17 -7 -14 -8 -24 -1 -28 5
-3 10 -1 10 6 0 7 3 10 6 6 3 -3 3 -11 -1 -17 -9 -15 -37 8 -29 24 4 6 -4 0
-17 -13 -16 -16 -20 -25 -11 -28 6 -3 12 -9 12 -14 0 -4 -8 -5 -17 -2 -15 5
-16 4 -7 -8 23 -29 23 -45 0 -45 -30 1 -68 43 -61 67 4 11 1 28 -7 37 -12 15
-11 16 5 3 23 -18 34 -7 16 16 -13 17 -12 17 4 4 16 -13 22 -10 60 27 38 38
40 42 25 59 -20 22 -36 89 -19 79 6 -4 9 -12 6 -17z m-1720 1 c13 -5 14 -9 5
-9 -8 0 -24 4 -35 9 -13 5 -14 9 -5 9 8 0 24 -4 35 -9z m-305 -49 c0 -32 -6
-24 -14 19 -4 25 -3 31 4 20 5 -8 10 -26 10 -39z m1641 32 c13 -15 12 -15 -8
-4 -24 12 -29 21 -14 21 5 0 15 -7 22 -17z m-1244 1 c-3 -3 -12 -4 -19 -1 -8
3 -5 6 6 6 11 1 17 -2 13 -5z m1720 -10 c-3 -3 -12 -4 -19 -1 -8 3 -5 6 6 6
11 1 17 -2 13 -5z m20 -10 c-3 -4 0 -13 8 -21 8 -8 15 -19 15 -25 0 -6 -9 0
-19 13 -17 22 -19 39 -4 39 4 0 4 -3 0 -6z m-2097 -47 c0 -5 -4 -5 -10 -2 -5
3 -10 14 -10 23 0 15 2 15 10 2 5 -8 10 -19 10 -23z m-281 -31 c9 -10 8 -15
-3 -19 -11 -4 -13 -1 -9 10 5 12 3 14 -7 8 -9 -5 -11 -4 -6 3 9 15 11 15 25
-2z m36 -7 c-4 -5 -1 -9 4 -9 6 0 11 5 11 12 0 6 3 9 6 6 3 -4 1 -15 -4 -25
-9 -15 -4 -25 22 -51 34 -32 59 -45 36 -17 -20 24 -5 18 16 -7 10 -12 13 -18
5 -13 -9 5 -12 3 -9 -6 3 -8 11 -13 17 -11 6 1 11 -2 11 -7 0 -5 7 -11 14 -14
10 -4 23 6 36 28 16 25 26 33 46 30 13 -1 27 -4 29 -7 3 -3 -20 -31 -50 -63
l-55 -59 -21 20 c-12 10 -33 29 -47 42 -27 24 -42 28 -42 11 0 -5 5 -7 12 -3
7 4 8 3 4 -4 -13 -22 -28 -13 -22 12 5 20 0 29 -24 46 -16 12 -30 18 -30 13 0
-5 9 -15 20 -23 11 -8 20 -19 20 -24 0 -5 -10 0 -23 12 -15 14 -24 34 -24 53
0 19 3 25 9 17 6 -10 8 -9 8 4 0 12 5 16 18 11 14 -5 15 -3 5 8 -15 16 -17 43
-3 34 6 -4 8 -11 5 -16z m225 11 c0 -5 -2 -10 -4 -10 -3 0 -8 5 -11 10 -3 6
-1 10 4 10 6 0 11 -4 11 -10z m2163 -4 c4 -10 1 -13 -8 -9 -8 3 -12 9 -9 14 7
12 11 11 17 -5z m40 -12 c-4 -12 -8 -13 -14 -3 -9 15 -2 32 11 24 5 -3 6 -13
3 -21z m-1983 11 c0 -2 -6 -8 -13 -14 -10 -8 -14 -7 -14 2 0 8 6 14 14 14 7 0
13 -1 13 -2z m1550 -19 c-4 -4 -16 -4 -26 2 -16 9 -14 10 8 9 15 -1 23 -6 18
-11z m-1625 -16 c16 -17 16 -20 3 -15 -9 4 -19 13 -22 21 -7 19 -2 18 19 -6z
m684 -16 c52 -15 91 -55 84 -84 -6 -23 -28 -25 -63 -5 -35 20 -93 19 -119 -3
-16 -12 -24 -34 -30 -74 -4 -32 -15 -66 -23 -75 -9 -10 -24 -35 -35 -57 l-20
-38 -31 53 c-61 106 -108 139 -168 119 -45 -15 -64 -60 -64 -153 l0 -74 -83
-5 c-96 -5 -141 -28 -152 -78 -14 -64 45 -124 195 -196 30 -15 72 -35 93 -45
20 -10 37 -15 37 -11 0 4 4 0 10 -8 6 -9 5 -19 -2 -28 -9 -10 -8 -16 2 -22 8
-5 12 -11 9 -14 -3 -3 -36 7 -75 23 -71 30 -213 71 -246 71 -28 0 -96 -38
-108 -60 -20 -37 9 -109 69 -171 l39 -39 -44 -42 c-79 -75 -93 -147 -39 -198
l24 -23 -22 -17 c-12 -9 -34 -20 -49 -23 -14 -4 -33 -9 -41 -12 -10 -4 -18 7
-27 40 -11 38 -10 62 4 153 20 130 20 196 1 282 -26 117 -14 194 34 219 15 9
18 19 14 54 -4 37 -1 49 29 87 18 25 69 68 112 97 100 66 126 91 179 172 52
81 105 140 135 152 16 6 35 4 59 -6 36 -15 37 -15 62 15 14 17 40 35 56 40 36
11 132 3 194 -16z m478 9 c8 -3 20 -18 29 -34 17 -34 12 -33 58 -14 32 13 40
14 64 1 33 -17 90 -78 122 -131 41 -68 73 -103 150 -159 170 -124 183 -140
182 -212 -1 -35 4 -49 28 -73 26 -26 30 -37 30 -88 0 -32 -8 -95 -17 -140 -15
-73 -16 -94 -4 -180 22 -169 23 -187 11 -231 -9 -35 -15 -42 -28 -37 -9 4 -25
8 -34 9 -10 1 -29 13 -43 26 l-25 23 22 18 c14 13 22 34 26 67 4 47 3 50 -53
111 l-58 62 35 37 c64 69 87 126 69 174 -14 36 -82 62 -141 53 -45 -7 -220
-64 -258 -84 -25 -13 -36 -3 -17 16 8 8 15 20 15 26 0 7 -4 6 -10 -3 -8 -13
-10 -12 -10 3 0 11 15 24 43 36 182 78 258 125 283 172 45 89 -18 149 -158
149 l-58 0 0 50 c0 91 -18 147 -54 169 -26 16 -39 18 -71 11 -42 -9 -55 -23
-112 -114 l-37 -59 -14 34 c-8 19 -23 44 -33 55 -12 13 -22 40 -24 70 -5 67
-31 98 -84 102 -27 2 -52 -3 -66 -12 -39 -26 -65 -21 -64 12 0 38 45 70 121
87 58 13 148 12 185 -2z m763 13 c0 -3 -4 -8 -10 -11 -5 -3 -10 -1 -10 4 0 6
5 11 10 11 6 0 10 -2 10 -4z m-2380 -20 c0 -3 -4 -8 -10 -11 -5 -3 -10 -1 -10
4 0 6 5 11 10 11 6 0 10 -2 10 -4z m2560 -6 c0 -5 -2 -10 -4 -10 -3 0 -8 5
-11 10 -3 6 -1 10 4 10 6 0 11 -4 11 -10z m-137 -13 c3 -7 -3 -13 -14 -14 -15
-1 -16 1 -6 12 15 18 14 18 20 2z m67 -1 c0 -2 -7 -7 -16 -10 -8 -3 -12 -2 -9
4 6 10 25 14 25 6z m-2250 -47 c-7 -11 -14 -18 -17 -15 -3 3 0 12 7 21 18 21
23 19 10 -6z m106 -12 c-7 -28 -53 -54 -53 -31 0 8 6 13 12 10 17 -6 35 14 35
38 0 10 3 17 6 13 4 -3 4 -17 0 -30z m938 14 c10 -16 -6 -41 -26 -41 -14 0
-18 5 -14 16 3 9 6 20 6 25 0 12 27 12 34 0z m936 -11 c0 -5 -2 -10 -4 -10 -3
0 -8 5 -11 10 -3 6 -1 10 4 10 6 0 11 -4 11 -10z m356 -55 c7 -5 10 -13 8 -17
-2 -4 0 -9 6 -13 22 -14 10 -35 -19 -33 -19 1 -27 6 -24 16 4 10 -1 11 -23 6
-38 -9 -38 -9 -24 -34 6 -12 9 -28 6 -36 -4 -11 -12 -7 -33 15 -24 24 -30 27
-41 15 -7 -8 -10 -19 -6 -26 5 -7 3 -8 -6 -3 -10 6 -12 4 -6 -11 4 -10 10 -32
13 -48 6 -26 5 -28 -16 -17 -21 12 -31 -2 -10 -15 12 -7 -6 -24 -26 -24 -5 0
-4 4 4 9 12 8 12 12 2 24 -9 12 -9 16 1 20 10 3 9 9 -5 24 -10 12 -15 28 -11
39 5 16 4 16 -5 4 -12 -17 -14 -10 -5 14 3 9 10 13 15 10 5 -3 9 1 9 10 0 8
-6 17 -12 20 -7 3 -4 4 8 1 30 -8 51 19 33 42 -13 15 -12 15 6 6 15 -8 27 -8
43 1 27 15 102 15 118 1z m-2406 -18 c11 -5 9 -6 -4 -4 -11 1 -21 9 -23 17 -3
10 -2 11 4 4 4 -6 15 -14 23 -17z m-180 -9 c0 -5 -4 -17 -10 -27 -10 -20 12
-62 33 -60 9 0 9 2 0 6 -7 2 -13 9 -13 14 0 6 4 8 9 5 4 -3 17 1 27 9 28 21
31 19 31 -26 0 -28 -3 -37 -9 -27 -8 10 -9 10 -5 -2 4 -18 57 -27 57 -9 0 7 3
10 6 6 4 -3 14 3 23 14 15 19 18 20 30 5 9 -11 10 -16 2 -16 -6 0 -11 -6 -11
-13 0 -21 -31 -44 -73 -55 -20 -6 -35 -7 -33 -3 3 3 -19 19 -47 34 -59 31 -84
71 -71 115 4 15 6 31 5 35 -1 5 3 6 9 2 5 -3 10 -2 10 4 0 6 7 8 15 5 8 -4 15
-10 15 -16z m1422 -20 c98 -58 155 -157 129 -221 -9 -20 -14 -79 -15 -157 -1
-112 -4 -130 -26 -175 -22 -45 -28 -50 -58 -50 -29 0 -32 -2 -26 -20 18 -55
16 -103 -8 -139 -27 -42 -62 -49 -72 -13 -9 35 -7 45 11 49 9 2 -16 4 -56 5
-40 1 -83 5 -95 8 -14 4 -17 3 -8 -3 9 -6 11 -20 7 -46 -6 -30 -11 -37 -28
-34 -12 2 -32 18 -44 37 -24 36 -29 74 -14 113 12 31 11 44 -2 40 -56 -16 -97
71 -97 208 0 69 3 89 15 94 8 3 15 11 14 18 0 10 -2 10 -6 1 -2 -7 -9 -13 -14
-13 -4 0 -6 7 -3 15 4 8 -1 26 -10 40 -42 64 10 176 110 238 55 34 66 36 165
33 72 -2 93 -6 131 -28z m983 22 c3 -5 1 -10 -4 -10 -6 0 -11 5 -11 10 0 6 2
10 4 10 3 0 8 -4 11 -10z m-2085 -4 c0 -3 -4 -8 -10 -11 -5 -3 -10 -1 -10 4 0
6 5 11 10 11 6 0 10 -2 10 -4z m-290 -9 c0 -2 -10 -12 -21 -23 -22 -19 -22
-19 -8 4 12 19 29 30 29 19z m2610 -12 c7 -9 8 -15 2 -15 -5 0 -12 7 -16 15
-3 8 -4 15 -2 15 2 0 9 -7 16 -15z m-2478 -31 c-9 -16 -10 -14 -9 8 1 15 6 23
11 18 4 -4 4 -16 -2 -26z m-46 -17 c1 -17 -1 -26 -3 -19 -3 6 -10 9 -15 6 -6
-4 -9 -3 -6 2 3 5 8 17 11 27 9 25 12 21 13 -16z m2597 -10 c4 3 7 4 7 0 0
-18 -21 -14 -30 5 -10 21 -10 21 3 6 8 -10 17 -15 20 -11z m-2576 -9 c-3 -8
-6 -5 -6 6 -1 11 2 17 5 13 3 -3 4 -12 1 -19z m-140 -64 c-3 -3 -12 -4 -19 -1
-8 3 -5 6 6 6 11 1 17 -2 13 -5z m153 -29 c0 -7 -30 -13 -34 -7 -3 4 4 9 15 9
10 1 19 0 19 -2z m10 -19 c0 -3 -4 -8 -10 -11 -5 -3 -10 -1 -10 4 0 6 5 11 10
11 6 0 10 -2 10 -4z m2307 -20 c-7 -14 -13 -23 -15 -21 -7 6 9 45 18 45 4 0 3
-11 -3 -24z m37 3 c-15 -5 -12 -8 16 -13 67 -13 145 -12 143 1 -4 18 46 28 60
14 9 -10 5 -11 -18 -6 -24 4 -26 4 -9 -4 35 -16 35 -36 -1 -71 -19 -18 -32
-37 -29 -41 2 -4 -1 -11 -7 -15 -8 -5 -10 -2 -5 7 12 22 -43 -43 -62 -73 -18
-31 -47 -37 -48 -10 -1 9 -4 25 -8 34 -5 12 -1 20 16 28 21 10 21 10 6 -3 -10
-8 -18 -18 -18 -22 0 -5 11 2 24 14 21 20 23 27 14 51 -5 16 -17 35 -25 42
-14 11 -15 10 -9 -12 6 -25 6 -25 -5 -2 -11 19 -38 28 -71 23 -8 -1 -2 22 14
56 7 14 16 19 26 15 13 -5 12 -7 -4 -13z m-2574 0 c10 0 8 -3 -5 -9 -19 -8
-19 -9 3 -9 26 -1 97 -35 108 -52 18 -30 22 -83 7 -105 -8 -13 -11 -24 -7 -24
5 0 1 -5 -10 -11 -13 -8 -20 -8 -25 -1 -11 18 -136 61 -158 56 -17 -5 -21 0
-25 26 -3 17 -1 33 3 36 5 3 3 13 -3 24 -7 10 -16 16 -22 13 -5 -4 -6 -1 -1 7
6 10 11 9 22 -5 13 -18 13 -18 28 1 8 10 12 25 10 32 -3 7 -1 11 4 7 5 -3 17
-2 27 2 16 6 16 7 -2 15 -15 7 -14 7 6 3 14 -2 32 -5 40 -6z m2620 1 c0 -5 -5
-10 -11 -10 -5 0 -7 5 -4 10 3 6 8 10 11 10 2 0 4 -4 4 -10z m63 3 c-7 -2 -19
-2 -25 0 -7 3 -2 5 12 5 14 0 19 -2 13 -5z m157 -18 c14 -19 14 -19 -2 -6 -10
7 -18 18 -18 24 0 6 1 8 3 6 1 -2 9 -13 17 -24z m-2960 11 c0 -2 -8 -10 -17
-17 -16 -13 -17 -12 -4 4 13 16 21 21 21 13z m205 -6 c-11 -5 -27 -9 -35 -9
-13 -1 -13 0 0 9 8 5 24 9 35 9 l20 0 -20 -9z m10 -20 c3 -5 -1 -10 -10 -10
-9 0 -13 5 -10 10 3 6 8 10 10 10 2 0 7 -4 10 -10z m2502 -82 c-3 -8 -6 -5 -6
6 -1 11 2 17 5 13 3 -3 4 -12 1 -19z m-2740 -20 c-3 -7 -5 -2 -5 12 0 14 2 19
5 13 2 -7 2 -19 0 -25z m1185 -53 c5 -22 3 -24 -11 -13 -9 7 -18 13 -20 15 -5
3 10 23 18 23 5 0 11 -11 13 -25z m642 9 c11 -27 6 -88 -9 -114 -17 -29 -20
-9 -4 22 8 14 8 23 0 31 -15 15 -14 44 2 50 7 3 5 6 -5 6 -21 1 -25 21 -4 21
8 0 17 -7 20 -16z m1032 -31 c-3 -4 -6 -1 -6 5 0 7 -5 12 -11 12 -6 0 -9 -6
-6 -13 3 -7 -3 -13 -14 -13 -17 0 -17 2 3 23 19 21 23 22 31 7 5 -8 6 -18 3
-21z m-2756 8 c0 -6 -4 -12 -8 -15 -5 -3 -9 1 -9 9 0 8 4 15 9 15 4 0 8 -4 8
-9z m2781 -14 c-10 -9 -11 -8 -5 6 3 10 9 15 12 12 3 -3 0 -11 -7 -18z m-1729
-28 c-22 -22 -25 -18 -12 17 9 22 13 25 20 14 6 -10 3 -20 -8 -31z m33 -9 c3
-5 1 -10 -4 -10 -6 0 -11 5 -11 10 0 6 2 10 4 10 3 0 8 -4 11 -10z m-1071
-141 c-8 -13 10 -11 25 4 10 9 12 9 7 0 -4 -7 4 -19 19 -29 14 -9 31 -26 37
-38 18 -32 27 -118 14 -134 -28 -36 -81 -82 -96 -82 -9 0 -22 -6 -29 -12 -11
-10 -12 -10 -7 -1 5 10 -1 11 -25 6 -21 -4 -30 -3 -26 4 10 15 -35 25 -46 10
-6 -8 -7 -8 -4 3 2 8 -5 28 -16 44 -22 31 -41 130 -24 119 6 -4 8 3 5 15 -4
12 -3 20 2 17 11 -7 22 24 13 38 -4 6 0 8 10 4 11 -4 14 -2 11 8 -4 10 1 12
18 8 17 -3 20 -2 9 5 -11 8 -8 11 15 14 60 6 94 5 88 -3z m2925 -127 c4 -36 3
-59 -2 -55 -5 3 -6 -3 -3 -15 4 -12 2 -23 -5 -28 -8 -5 -10 -3 -5 7 4 8 -1 3
-12 -11 -11 -13 -18 -28 -15 -33 5 -9 -26 -36 -42 -36 -5 0 -2 4 8 10 24 14
22 33 -2 19 -11 -5 -29 -10 -40 -10 -12 0 -21 -4 -21 -10 0 -5 5 -10 12 -10 6
0 9 -2 6 -5 -8 -9 -38 6 -32 16 3 5 -2 9 -10 9 -25 0 -85 34 -86 48 0 7 -4 11
-8 8 -4 -2 -8 3 -9 12 -1 9 -6 34 -11 55 -8 30 -6 45 9 78 11 22 17 44 14 48
-3 5 5 7 17 5 13 -2 17 -2 11 2 -7 3 -13 10 -13 15 0 6 4 8 8 5 4 -3 39 -2 77
2 l70 7 38 -36 c34 -31 40 -43 46 -97z m-2859 118 c0 -5 -2 -10 -4 -10 -3 0
-8 5 -11 10 -3 6 -1 10 4 10 6 0 11 -4 11 -10z m2868 -11 c9 -14 10 -25 4 -31
-6 -6 -12 -5 -17 3 -5 8 -4 10 3 5 17 -11 14 5 -5 26 -9 10 -12 18 -7 18 5 0
15 -10 22 -21z m-3116 -21 c-7 -7 -12 -8 -12 -2 0 14 12 26 19 19 2 -3 -1 -11
-7 -17z m3158 -32 c0 -3 -4 -8 -10 -11 -5 -3 -10 -1 -10 4 0 6 5 11 10 11 6 0
10 -2 10 -4z m-13 -143 c-2 -16 -4 -5 -4 22 0 28 2 40 4 28 2 -13 2 -35 0 -50z
m-1909 22 c2 -2 -4 -15 -14 -30 -22 -34 -9 -48 34 -36 24 7 36 6 47 -6 8 -8
12 -19 9 -25 -4 -6 -2 -8 3 -5 15 10 56 -29 47 -45 -4 -7 -4 -10 1 -6 11 10
47 -11 40 -23 -4 -5 -3 -8 2 -7 15 5 102 -67 103 -85 0 -10 -14 -24 -35 -34
l-34 -16 -82 49 c-101 61 -290 249 -274 273 3 6 146 2 153 -4z m802 7 c0 -27
-145 -182 -227 -243 -94 -70 -163 -102 -220 -103 -29 -1 -53 0 -53 1 0 9 44
73 50 73 13 0 177 135 206 169 25 30 30 32 71 26 36 -5 43 -3 43 10 0 9 -7 23
-15 31 -26 26 -17 33 48 37 34 2 70 4 80 5 9 1 17 -2 17 -6z m786 -26 c0 -14
-5 -21 -9 -17 -4 4 -5 15 -1 24 9 24 12 21 10 -7z m-2796 -26 c8 -5 12 -11 10
-14 -3 -2 -14 2 -24 10 -22 15 -10 19 14 4z m1440 -33 c0 -19 7 -48 15 -63 8
-16 15 -39 15 -52 0 -20 -5 -18 -62 27 -77 60 -112 97 -104 109 3 5 35 10 71
11 l65 2 0 -34z m319 17 c2 -2 -4 -13 -15 -25 -25 -28 -176 -149 -186 -149
-11 0 9 48 27 66 10 10 15 35 15 71 l0 56 77 -7 c43 -4 80 -9 82 -12z m1311
12 c0 -3 -4 -8 -10 -11 -5 -3 -10 -1 -10 4 0 6 5 11 10 11 6 0 10 -2 10 -4z
m-2820 -16 c0 -5 -5 -10 -11 -10 -5 0 -7 5 -4 10 3 6 8 10 11 10 2 0 4 -4 4
-10z m2836 -14 c0 -14 -6 -22 -13 -19 -7 3 -13 7 -13 9 0 4 23 33 26 34 1 0 1
-11 0 -24z m-3091 -4 c-3 -3 -11 0 -18 7 -9 10 -8 11 6 5 10 -3 15 -9 12 -12z
m225 -20 c0 -4 -9 -8 -19 -8 -11 0 -17 4 -15 8 3 4 12 8 20 8 8 0 14 -4 14 -8z
m-273 -34 c-3 -8 -6 -5 -6 6 -1 11 2 17 5 13 3 -3 4 -12 1 -19z m20 -10 c-3
-8 -6 -5 -6 6 -1 11 2 17 5 13 3 -3 4 -12 1 -19z m2878 -88 c-3 -5 -12 -10
-18 -10 -7 0 -6 4 3 10 19 12 23 12 15 0z m46 -34 c29 -6 59 -57 59 -100 0
-14 8 -30 18 -35 9 -6 12 -11 7 -11 -11 0 -65 54 -65 66 0 15 -34 44 -52 44
-23 0 -34 -26 -19 -44 11 -13 5 -46 -9 -46 -15 0 -37 36 -44 70 -4 25 -3 31 4
20 8 -12 10 -13 10 -1 0 22 31 52 49 47 9 -2 28 -7 42 -10z m-2646 -28 c14
-13 30 -39 34 -59 7 -29 4 -40 -14 -61 -13 -15 -41 -32 -64 -39 -30 -9 -38
-15 -29 -21 8 -6 4 -7 -12 -2 -63 17 -87 33 -104 69 -15 32 -16 41 -4 68 7 18
12 35 10 39 -1 4 4 5 12 2 8 -3 17 0 22 7 5 8 3 10 -6 4 -8 -5 -11 -4 -7 1 3
6 35 11 70 12 55 2 69 -1 92 -20z m1265 -18 c0 -13 -32 -28 -49 -22 -10 3 -7
8 10 18 29 16 39 17 39 4z m1350 -10 c-12 -8 -12 -10 -1 -10 8 0 12 -3 8 -6
-9 -9 -28 6 -22 17 4 5 12 9 18 9 7 0 6 -4 -3 -10z m164 -34 c-10 -33 -22 -42
-42 -30 -33 22 -19 52 24 52 20 0 23 -4 18 -22z m-277 -18 c-3 -8 -6 -5 -6 6
-1 11 2 17 5 13 3 -3 4 -12 1 -19z m300 -10 c-3 -7 -5 -2 -5 12 0 14 2 19 5
13 2 -7 2 -19 0 -25z m-146 5 c13 -16 12 -17 -3 -4 -17 13 -22 21 -14 21 2 0
10 -8 17 -17z m-106 -3 c3 -5 1 -10 -4 -10 -6 0 -11 5 -11 10 0 6 2 10 4 10 3
0 8 -4 11 -10z m-20 -47 c6 -1 19 -5 29 -9 15 -6 17 -4 11 6 -5 8 -4 11 3 6 6
-4 9 -13 5 -21 -3 -8 0 -15 6 -15 6 0 11 4 11 9 0 5 7 12 16 15 14 5 15 4 4
-9 -15 -19 -14 -20 34 -40 28 -12 36 -13 30 -3 -7 13 26 -12 58 -44 16 -16 16
-17 -12 -23 -17 -4 -30 -11 -30 -16 0 -6 -4 -8 -9 -5 -5 3 -21 -4 -36 -16
l-27 -21 23 -13 c13 -7 20 -13 16 -14 -5 0 -18 5 -29 11 -15 8 -26 8 -44 -1
-13 -7 -21 -16 -19 -20 3 -4 -1 -7 -8 -6 -24 2 -16 -19 11 -28 36 -11 62 -35
62 -56 0 -28 -11 -30 -40 -10 -15 11 -30 16 -34 12 -4 -4 -6 0 -4 8 2 8 -4 15
-12 15 -8 0 -21 6 -28 13 -7 6 -21 12 -30 12 -14 0 -15 -2 -2 -10 10 -6 -1 -8
-33 -6 -26 2 -50 6 -53 9 -15 15 20 45 70 61 36 11 54 21 50 28 -5 8 -1 9 9 5
11 -4 35 5 65 25 26 17 38 27 27 24 -16 -6 -18 -5 -7 5 6 7 12 17 12 23 0 5
-3 7 -6 3 -4 -3 -13 0 -21 8 -8 8 -23 15 -34 15 -10 0 -19 5 -19 10 0 13 -32
9 -43 -5 -9 -10 -8 -7 7 42 5 16 4 22 -6 20 -7 -2 -10 -2 -5 0 4 3 7 14 8 26
1 21 1 21 7 2 4 -11 12 -21 17 -22z m-2468 5 c-3 -8 -6 -5 -6 6 -1 11 2 17 5
13 3 -3 4 -12 1 -19z m-22 3 c-3 -6 3 -14 12 -20 10 -6 13 -11 7 -11 -15 0
-36 25 -27 33 10 10 15 8 8 -2z m2441 -43 c-11 -7 -26 9 -26 30 0 8 6 6 18 -5
11 -12 14 -21 8 -25z m339 32 c3 -6 -1 -7 -9 -4 -18 7 -21 14 -7 14 6 0 13 -4
16 -10z m-3028 -32 c-3 -7 -5 -2 -5 12 0 14 2 19 5 13 2 -7 2 -19 0 -25z
m2883 22 c-8 -5 -22 -9 -30 -9 -10 0 -8 3 5 9 27 12 43 12 25 0z m107 -12 c-3
-8 -6 -5 -6 6 -1 11 2 17 5 13 3 -3 4 -12 1 -19z m-2777 -8 c-8 -5 -19 -10
-25 -10 -5 0 -3 5 5 10 8 5 20 10 25 10 6 0 3 -5 -5 -10z m70 -10 c0 -5 -8
-10 -17 -10 -15 0 -16 2 -3 10 19 12 20 12 20 0z m-45 -10 c-3 -5 -12 -10 -18
-10 -7 0 -6 4 3 10 19 12 23 12 15 0z m50 -33 c18 -15 27 -33 28 -56 2 -28 -3
-36 -30 -51 -18 -9 -29 -20 -25 -24 4 -4 0 -6 -8 -4 -8 2 -24 12 -34 23 -19
20 -19 20 -13 -2 3 -13 1 -21 -6 -20 -6 1 -16 -11 -22 -28 -15 -44 -25 -57
-41 -51 -17 7 -18 -5 -1 -24 10 -12 9 -12 -5 -1 -19 14 -18 41 5 93 9 21 17
42 17 48 0 13 -17 13 -25 0 -3 -5 -17 -10 -31 -10 -13 0 -24 -5 -24 -11 0 -5
-4 -7 -10 -4 -5 3 -10 11 -10 16 0 6 5 7 11 3 7 -4 10 -1 7 7 -3 8 1 22 10 32
14 15 13 17 -1 17 -10 0 -17 4 -17 8 0 4 9 8 19 8 11 0 19 -4 18 -9 -1 -5 4
-12 12 -15 9 -3 11 0 6 7 -4 8 -2 12 6 11 20 -3 59 11 59 21 0 5 6 6 14 3 8
-3 23 4 33 15 22 26 26 26 58 -2z m-255 9 c0 -2 -7 -7 -16 -10 -8 -3 -12 -2
-9 4 6 10 25 14 25 6z m323 -26 c-7 -27 -13 -25 -11 4 1 14 5 23 9 20 4 -2 5
-13 2 -24z m-23 -2 c0 -6 -6 -5 -15 2 -8 7 -15 14 -15 16 0 2 7 1 15 -2 8 -4
15 -11 15 -16z m2307 -10 c-3 -8 -6 -5 -6 6 -1 11 2 17 5 13 3 -3 4 -12 1 -19z
m163 -8 c0 -5 -5 -10 -11 -10 -5 0 -7 5 -4 10 3 6 8 10 11 10 2 0 4 -4 4 -10z
m-2450 -44 c0 -12 -5 -7 -19 24 -11 24 -11 24 3 6 9 -11 16 -24 16 -30z m1496
8 c77 -46 77 -46 89 -109 9 -43 8 -59 -3 -81 -8 -16 -15 -45 -15 -66 0 -29 -4
-38 -17 -38 -31 0 -55 39 -54 86 0 24 -3 44 -7 44 -4 0 -14 19 -22 43 -14 37
-16 39 -16 15 -1 -32 -17 -35 -64 -13 -32 15 -32 15 -8 -2 14 -10 41 -23 60
-28 30 -9 36 -16 39 -40 5 -66 13 -92 32 -113 20 -21 20 -21 -8 -39 -51 -35
-195 -72 -207 -53 -10 16 12 46 47 63 18 9 27 17 20 17 -18 0 -55 -20 -68 -38
-8 -11 -23 -14 -57 -10 -26 3 -45 2 -42 -2 2 -4 -11 -21 -30 -38 -19 -18 -37
-27 -40 -22 -3 6 -4 13 -2 18 3 4 -6 8 -20 8 l-25 2 21 -19 c21 -20 27 -38 14
-40 -5 -1 -24 -2 -43 -3 -19 -2 -49 -6 -65 -10 -33 -7 -93 12 -113 37 -10 11
-7 13 16 11 140 -17 140 -17 151 3 16 31 2 62 -38 82 -40 20 -137 39 -111 21
8 -5 26 -10 39 -10 39 0 101 -41 101 -66 0 -20 -4 -22 -57 -18 -31 2 -62 9
-69 15 -7 6 -14 6 -18 1 -7 -12 -85 5 -104 23 -11 10 -10 18 7 46 12 19 21 41
20 49 0 8 -8 0 -17 -19 -20 -40 -43 -57 -66 -48 -17 7 -23 66 -7 82 4 6 11 26
15 45 4 28 4 31 -5 16 -16 -26 -29 -3 -29 51 0 37 5 47 46 85 58 56 100 78
144 78 45 0 115 -32 129 -58 14 -27 14 -42 -1 -42 -6 0 -32 -14 -58 -30 -28
-18 -63 -31 -86 -33 -44 -2 -64 -24 -63 -72 1 -31 3 -28 13 18 5 18 13 27 27
27 11 0 34 7 50 16 17 8 34 13 37 9 3 -3 -4 -8 -16 -12 -19 -5 -32 -23 -16
-23 18 0 44 23 44 39 0 11 12 24 31 32 27 11 36 10 60 -4 25 -14 29 -14 29 -1
0 34 29 71 61 78 26 5 38 1 57 -16 14 -13 22 -18 19 -12 -9 15 19 39 28 24 11
-18 -6 -50 -30 -56 -16 -4 -25 -14 -27 -32 -2 -14 -9 -28 -17 -30 -9 -3 -12 0
-9 9 3 8 -1 30 -8 49 -7 19 -13 28 -13 20 -1 -13 -2 -13 -11 0 -7 11 -11 9
-19 -13 -6 -16 -11 -42 -11 -59 l0 -31 -24 22 c-32 30 -50 25 -33 -9 9 -17 20
-24 34 -22 11 2 23 -4 27 -13 4 -11 13 -14 29 -10 15 4 28 1 37 -10 10 -13 15
-13 21 -3 6 10 11 10 20 1 19 -19 13 -65 -11 -85 -26 -21 -78 -26 -63 -5 6 6
13 20 16 29 5 14 2 16 -16 9 -37 -13 -72 1 -75 32 -2 15 -8 25 -13 22 -5 -4
-19 4 -32 17 -22 22 -87 33 -87 16 0 -7 36 -11 43 -5 2 1 11 -6 21 -15 9 -10
22 -21 29 -25 7 -5 20 -20 30 -35 10 -16 26 -28 38 -28 16 0 20 -5 16 -20 -3
-13 0 -20 9 -20 17 0 18 -12 2 -28 -8 -8 -8 -12 -1 -12 14 0 34 25 26 33 -3 4
3 7 14 7 11 0 32 9 46 20 14 11 38 21 54 21 22 1 23 3 7 6 -16 3 -23 13 -26
39 -4 32 -2 35 17 30 12 -3 32 2 44 11 18 12 22 22 17 44 -4 19 -1 29 7 30 25
2 -39 17 -77 18 l-39 1 27 25 c15 14 26 35 26 51 0 21 3 24 13 15 11 -8 18 -6
33 10 27 30 75 59 100 59 11 0 47 -16 80 -36z m1129 26 c-3 -5 -14 -10 -23 -9
-14 0 -13 2 3 9 27 11 27 11 20 0z m-2947 -45 c-3 -3 -9 2 -12 12 -6 14 -5 15
5 6 7 -7 10 -15 7 -18z m2612 5 c0 -5 -5 -10 -11 -10 -5 0 -7 5 -4 10 3 6 8
10 11 10 2 0 4 -4 4 -10z m-2245 -10 c3 -5 1 -10 -4 -10 -6 0 -11 5 -11 10 0
6 2 10 4 10 3 0 8 -4 11 -10z m2305 -4 c0 -2 -7 -7 -16 -10 -8 -3 -12 -2 -9 4
6 10 25 14 25 6z m-1260 -36 c0 -5 -3 -15 -6 -24 -9 -22 -24 -10 -24 19 0 18
4 23 15 19 8 -4 15 -10 15 -14z m-1330 -10 c-8 -5 -19 -10 -25 -10 -5 0 -3 5
5 10 8 5 20 10 25 10 6 0 3 -5 -5 -10z m2791 -17 c-12 -20 -14 -14 -5 12 4 9
9 14 11 11 3 -2 0 -13 -6 -23z m-325 -8 c-9 -9 -16 -13 -16 -8 0 12 22 34 28
28 2 -2 -3 -11 -12 -20z m288 -49 c-1 -11 -3 -27 -3 -33 -1 -7 -6 -13 -11 -13
-7 0 -7 6 -1 18 7 13 6 27 -4 45 -12 24 -12 25 4 15 10 -6 16 -20 15 -32z
m-198 11 c2 -2 -9 -4 -26 -5 -16 0 -32 3 -34 7 -5 7 52 6 60 -2z m-1032 -8
c30 -14 40 -37 25 -55 -14 -17 -49 -18 -49 -2 0 9 -3 9 -12 0 -17 -17 -53 -15
-69 4 -10 13 -10 17 2 25 8 5 19 9 25 9 6 0 17 7 24 15 15 18 22 18 54 4z
m-124 -25 c0 -8 -9 -14 -20 -14 -22 0 -26 10 -8 28 13 13 28 7 28 -14z m-1410
10 c0 -8 -19 -13 -24 -6 -3 5 1 9 9 9 8 0 15 -2 15 -3z m2409 -13 c13 -8 13
-12 1 -28 -7 -10 -1 -6 14 10 34 34 74 35 124 3 55 -35 68 -55 68 -105 -1 -41
-5 -48 -44 -78 -44 -33 -69 -43 -56 -22 5 8 -1 10 -19 7 -15 -3 -24 -2 -22 2
3 4 -7 15 -21 24 -13 10 -30 28 -36 41 -6 14 -14 22 -18 20 -4 -2 -5 24 -4 58
2 40 -1 64 -9 69 -7 4 -7 8 -2 8 6 0 16 -4 24 -9z m172 -12 l24 -20 -30 17
c-39 24 -40 24 -28 24 6 0 21 -9 34 -21z m-2157 -15 c5 -14 4 -15 -9 -4 -17
14 -19 20 -6 20 5 0 12 -7 15 -16z m17 -55 c-9 -22 -10 -22 -10 -3 -1 11 2 24
6 27 12 12 14 0 4 -24z m-35 -13 c18 -19 35 -32 37 -30 2 2 2 -11 0 -29 -3
-23 -2 -28 6 -17 5 8 7 18 4 24 -3 5 -1 6 5 3 7 -5 7 -16 -1 -37 -7 -20 -14
-25 -19 -17 -6 9 -8 9 -8 -1 0 -22 -65 -78 -97 -85 -35 -7 -103 28 -118 61 -5
12 -13 22 -17 22 -5 0 -8 5 -8 11 0 5 4 8 9 5 14 -9 42 5 34 17 -3 5 -1 7 4 4
14 -9 107 79 98 92 -16 27 41 8 71 -23z m-358 -11 c-3 -3 -9 2 -12 12 -6 14
-5 15 5 6 7 -7 10 -15 7 -18z m2286 -74 c-13 -31 -10 -56 8 -55 10 1 15 -2 12
-7 -3 -5 2 -9 10 -9 13 0 54 -37 99 -89 20 -24 23 -38 5 -23 -9 7 -20 5 -37
-9 -13 -10 -19 -19 -15 -19 12 0 -19 -20 -31 -20 -5 0 -3 5 5 10 13 8 12 11
-4 23 -19 14 -19 15 3 26 l22 12 -22 20 c-13 11 -29 17 -36 15 -7 -3 -13 -2
-13 2 0 4 -10 12 -22 17 -12 6 -29 27 -37 48 -13 35 -13 39 9 62 24 26 56 23
44 -4z m346 4 c0 -7 -7 -16 -16 -19 -14 -5 -15 -4 -5 8 7 8 9 21 5 27 -4 8 -3
9 4 5 7 -4 12 -13 12 -21z m-2565 -5 c3 -5 1 -10 -4 -10 -6 0 -11 5 -11 10 0
6 2 10 4 10 3 0 8 -4 11 -10z m2512 -12 c2 -17 0 -19 -7 -8 -5 8 -6 18 -4 22
8 12 10 10 11 -14z m-417 9 c0 -2 -10 -12 -22 -23 l-23 -19 19 23 c18 21 26
27 26 19z m-2030 -21 c0 -3 -4 -8 -10 -11 -5 -3 -10 -1 -10 4 0 6 5 11 10 11
6 0 10 -2 10 -4z m1355 -18 c11 -24 32 -28 93 -15 17 3 32 2 32 -3 0 -9 -29
-21 -65 -26 -11 -2 -41 -10 -66 -17 -74 -24 -109 18 -53 62 34 27 47 26 59 -1z
m705 2 c0 -5 -5 -10 -11 -10 -5 0 -7 5 -4 10 3 6 8 10 11 10 2 0 4 -4 4 -10z
m195 -1 c11 -16 1 -19 -13 -3 -7 8 -8 14 -3 14 5 0 13 -5 16 -11z m143 4 c-10
-2 -18 -9 -18 -15 0 -6 -3 -9 -6 -5 -10 10 6 27 24 26 15 -1 15 -2 0 -6z
m-2380 -33 c-15 -24 -19 -21 -11 8 3 12 9 19 14 16 5 -3 3 -14 -3 -24z m277 9
c2 -9 -4 -16 -11 -16 -8 0 -14 9 -14 20 0 22 22 18 25 -4z m100 3 c-2 -3 4
-11 15 -19 11 -8 20 -21 20 -29 0 -8 4 -14 10 -14 5 0 7 8 4 18 -5 14 -4 14 4
2 22 -30 -8 -39 -54 -16 -19 11 -33 12 -46 5 -23 -12 -24 -31 -1 -22 12 5 15
2 11 -9 -4 -9 -2 -20 4 -26 13 -13 3 -42 -14 -42 -9 0 -8 3 2 10 13 8 12 10
-5 11 -11 1 -28 1 -38 1 -10 -1 -15 3 -12 8 3 6 2 10 -4 10 -15 0 -25 -41 -11
-50 6 -4 11 -11 10 -15 -1 -4 7 -17 18 -30 l20 -22 -33 1 c-18 0 -32 3 -30 5
2 2 -5 12 -16 24 -10 11 -19 27 -19 34 0 8 -5 11 -10 8 -6 -4 -7 -12 -3 -18 4
-7 -2 -5 -13 3 -29 22 -30 24 -12 17 21 -8 40 15 31 38 -5 14 -3 16 7 10 10
-6 12 -4 7 8 -3 9 -1 19 5 23 7 5 8 2 4 -7 -4 -8 0 -5 9 6 63 79 67 82 97 79
17 -2 27 0 23 6 -3 6 1 7 10 4 9 -4 13 -9 10 -12z m866 4 c-7 -8 -11 -30 -9
-48 2 -21 -1 -33 -9 -33 -7 0 -13 4 -12 9 0 5 -5 12 -12 17 -11 6 -7 15 16 39
29 31 47 42 26 16z m779 -18 c0 -7 -5 -6 -13 1 -8 6 -18 7 -22 3 -5 -4 -5 -2
-1 5 8 14 36 6 36 -9z m370 12 c0 -5 -2 -10 -4 -10 -3 0 -8 5 -11 10 -3 6 -1
10 4 10 6 0 11 -4 11 -10z m-2330 -42 c0 -6 -6 -5 -15 2 -8 7 -15 14 -15 16 0
2 7 1 15 -2 8 -4 15 -11 15 -16z m1945 12 c4 -6 10 -8 14 -6 4 3 13 0 21 -6
12 -8 12 -9 -2 -4 -10 3 -18 2 -18 -3 0 -7 37 -59 70 -98 6 -7 8 -13 5 -13 -6
0 4 -13 33 -45 14 -16 12 -17 -30 -20 -15 -1 -25 1 -23 5 6 10 -45 75 -56 72
-6 -1 -8 2 -4 7 3 6 -8 25 -25 42 -33 35 -36 49 -18 67 15 15 25 15 33 2z m85
-27 c0 -9 5 -11 13 -7 9 6 9 4 -1 -8 -7 -8 -10 -22 -6 -31 3 -8 1 -18 -5 -21
-7 -5 -9 4 -7 23 2 17 -3 43 -10 57 -13 24 -12 25 1 14 8 -7 15 -19 15 -27z
m-145 6 c0 -8 4 -20 9 -27 7 -11 4 -11 -13 -1 -14 10 -17 16 -8 21 9 6 8 11
-3 19 -13 9 -13 10 0 6 8 -2 15 -10 15 -18z m-1891 -18 c-2 -3 -12 3 -22 13
-16 17 -16 18 5 5 12 -7 20 -15 17 -18z m166 19 c0 -5 -4 -10 -10 -10 -5 0
-10 5 -10 10 0 6 5 10 10 10 6 0 10 -4 10 -10z m956 -37 c-3 -3 -13 -2 -23 1
-17 7 -17 8 2 22 18 13 20 13 23 -1 2 -9 1 -19 -2 -22z m892 2 c-3 -3 -9 2
-12 12 -6 14 -5 15 5 6 7 -7 10 -15 7 -18z m198 16 c-4 -5 -1 -12 4 -14 6 -3
5 -4 -2 -3 -15 3 -23 26 -8 26 6 0 9 -4 6 -9z m-451 -21 c-3 -5 -14 -10 -23
-10 -15 0 -15 2 -2 10 20 13 33 13 25 0z m-1713 -64 c6 -14 1 -11 -16 8 -14
16 -26 31 -26 34 0 10 32 -22 42 -42z m422 31 c-3 -9 4 -13 22 -12 26 0 27 -1
29 -68 1 -37 -2 -62 -7 -55 -5 9 -8 6 -8 -9 0 -12 5 -25 10 -28 6 -3 10 -11
10 -16 0 -6 -4 -7 -10 -4 -12 7 -14 -8 -3 -19 28 -27 -31 -87 -65 -66 -14 9
-13 10 7 4 21 -6 23 -4 17 17 -4 13 -8 40 -9 59 -2 29 -6 35 -24 35 -12 0 -26
5 -30 9 -5 5 -2 6 7 1 11 -6 12 -5 4 4 -13 15 -67 -6 -57 -22 4 -6 -4 -7 -21
-3 -17 4 -26 2 -26 -6 0 -9 -3 -9 -11 -1 -18 18 -3 64 18 56 11 -4 14 -3 9 5
-4 7 -2 10 6 7 20 -8 123 67 124 90 1 28 3 35 9 35 2 0 2 -6 -1 -13z m121 3
c3 -5 1 -10 -4 -10 -6 0 -11 5 -11 10 0 6 2 10 4 10 3 0 8 -4 11 -10z m1091
-5 c-11 -8 -25 -15 -30 -15 -6 1 0 7 14 15 32 19 40 18 16 0z m161 1 c11 -4
26 -17 33 -31 10 -19 16 -22 27 -13 11 8 12 7 7 -5 -3 -9 -2 -30 4 -45 12 -36
5 -75 -17 -99 -10 -10 -16 -24 -14 -30 4 -12 -35 -29 -44 -19 -4 3 1 6 10 6
10 0 17 3 17 8 0 4 -25 7 -55 6 -32 0 -52 3 -48 9 3 5 1 12 -4 16 -6 3 -22 28
-37 55 -20 36 -24 51 -16 62 7 7 9 22 5 34 -4 11 -3 19 2 18 10 -3 55 27 49
33 -7 6 58 2 81 -5z m423 11 c0 -2 -12 -17 -26 -33 -27 -30 -23 -13 4 19 14
16 22 21 22 14z m-373 -39 c-3 -8 -6 -5 -6 6 -1 11 2 17 5 13 3 -3 4 -12 1
-19z m208 3 c3 -6 -3 -9 -14 -8 -11 0 -17 5 -15 9 7 11 22 10 29 -1z m-2010
-19 c-3 -3 -11 0 -18 7 -9 10 -8 11 6 5 10 -3 15 -9 12 -12z m1500 -10 c-3 -3
-11 0 -18 7 -9 10 -8 11 6 5 10 -3 15 -9 12 -12z m84 -32 c0 -10 -3 -8 -9 5
-12 27 -12 43 0 25 5 -8 9 -22 9 -30z m-1558 21 c-8 -5 -10 -14 -6 -22 6 -11
5 -11 -5 -2 -14 12 -6 33 13 33 8 0 7 -3 -2 -9z m1996 -28 c-3 -10 -5 -4 -5
12 0 17 2 24 5 18 2 -7 2 -21 0 -30z m68 19 c-3 -3 -11 0 -18 7 -9 10 -8 11 6
5 10 -3 15 -9 12 -12z m-584 -1 c-8 -5 -20 -7 -28 -4 -21 8 -15 13 15 13 20 0
23 -3 13 -9z m376 -13 c-3 -8 -6 -5 -6 6 -1 11 2 17 5 13 3 -3 4 -12 1 -19z
m-452 -15 c-22 -22 -18 -27 8 -11 66 43 133 17 129 -50 -4 -61 -6 -71 -12 -69
-18 4 -50 -17 -50 -34 0 -11 3 -18 8 -16 4 3 8 -17 9 -44 2 -33 -2 -49 -10
-49 -7 0 -6 -4 3 -10 13 -8 12 -10 -3 -10 -12 0 -20 10 -23 30 -4 16 -10 27
-15 24 -5 -3 -9 -3 -9 0 0 2 -3 13 -6 23 -5 15 -4 16 6 3 9 -12 10 -10 4 10
-9 34 -13 37 -24 20 -6 -8 -10 -10 -10 -4 0 5 6 16 12 22 8 8 9 15 3 20 -6 4
-11 18 -13 32 -1 13 -8 28 -15 32 -6 4 -8 8 -3 8 5 0 3 6 -4 14 -6 8 -10 23
-8 33 1 10 0 23 -4 28 -3 6 5 11 18 11 20 2 21 0 9 -13z m-675 3 c0 -2 -7 -6
-15 -10 -8 -3 -15 -1 -15 4 0 6 7 10 15 10 8 0 15 -2 15 -4z m-86 -21 c42 -28
50 -64 27 -125 -11 -29 -17 -58 -14 -63 3 -6 1 -7 -5 -3 -7 4 -12 1 -12 -6 0
-18 -105 -17 -138 1 -25 13 -29 29 -9 37 7 2 14 18 15 35 1 17 9 38 17 46 14
14 19 38 16 76 -2 14 6 17 39 17 22 0 51 -7 64 -15z m54 -30 c-3 -3 -9 2 -12
12 -6 14 -5 15 5 6 7 -7 10 -15 7 -18z m43 0 c5 3 6 -1 2 -10 -5 -13 -7 -14
-14 -3 -5 7 -8 20 -8 28 1 11 3 10 6 -3 2 -9 9 -15 14 -12z m826 -17 c-3 -7
-5 -2 -5 12 0 14 2 19 5 13 2 -7 2 -19 0 -25z m-751 -5 c1 -13 -1 -21 -5 -18
-7 4 -35 -145 -28 -151 1 -2 26 -4 55 -5 28 -2 52 -6 52 -11 0 -4 -4 -8 -8 -8
-5 0 -14 -11 -20 -25 l-12 -25 -37 20 c-21 11 -46 20 -57 20 -18 0 -18 5 -11
73 4 39 9 86 10 104 4 42 12 53 38 51 15 -1 22 -9 23 -25z m-286 2 c0 -1 -6
-7 -13 -13 -10 -8 -13 -6 -13 7 0 11 6 17 13 14 7 -3 13 -6 13 -8z m1300 11
c0 -3 -4 -8 -10 -11 -5 -3 -10 -1 -10 4 0 6 5 11 10 11 6 0 10 -2 10 -4z
m-794 -35 c-4 -5 0 -15 7 -23 7 -7 22 -26 32 -41 l18 -28 18 38 c10 21 18 44
19 51 0 6 10 12 23 12 20 0 23 -5 24 -37 1 -24 -2 -32 -8 -22 -7 11 -9 11 -9
-3 0 -10 -4 -18 -10 -18 -5 0 -10 -12 -10 -26 0 -14 -4 -23 -10 -19 -9 5 -15
-15 -11 -38 1 -4 -5 -15 -14 -23 -8 -9 -15 -22 -15 -29 0 -8 -4 -16 -10 -20
-15 -9 -58 5 -64 21 -3 9 -1 12 5 9 11 -7 49 31 49 48 0 19 -52 87 -61 81 -5
-3 -8 0 -7 8 2 7 -1 12 -7 11 -5 -1 -10 11 -11 26 -1 23 3 27 28 29 16 1 27
-2 24 -7z m41 -13 c-3 -8 -6 -5 -6 6 -1 11 2 17 5 13 3 -3 4 -12 1 -19z m34
-5 c-12 -20 -14 -14 -5 12 4 9 9 14 11 11 3 -2 0 -13 -6 -23z m-878 10 c-7 -2
-19 -2 -25 0 -7 3 -2 5 12 5 14 0 19 -2 13 -5z m1164 -35 c-3 -8 -6 -5 -6 6
-1 11 2 17 5 13 3 -3 4 -12 1 -19z m443 8 c0 -2 -7 -7 -16 -10 -8 -3 -12 -2
-9 4 6 10 25 14 25 6z m-130 -10 c0 -3 -4 -8 -10 -11 -5 -3 -10 -1 -10 4 0 6
5 11 10 11 6 0 10 -2 10 -4z m-176 -22 c5 -14 4 -15 -9 -4 -17 14 -19 20 -6
20 5 0 12 -7 15 -16z m-124 0 c0 -8 -19 -13 -24 -6 -3 5 1 9 9 9 8 0 15 -2 15
-3z m297 -4 c17 13 17 13 1 -4 -16 -19 -38 -15 -38 7 0 8 4 7 9 -2 8 -13 12
-13 28 -1z m-677 -30 c6 -11 8 -20 6 -20 -3 0 -10 9 -16 20 -6 11 -8 20 -6 20
3 0 10 -9 16 -20z m-635 0 c-3 -5 -12 -10 -18 -10 -7 0 -6 4 3 10 19 12 23 12
15 0z m1265 0 c0 -5 -2 -10 -4 -10 -3 0 -8 5 -11 10 -3 6 -1 10 4 10 6 0 11
-4 11 -10z m-1236 -26 c3 -8 2 -12 -4 -9 -6 3 -10 10 -10 16 0 14 7 11 14 -7z
m-29 -4 c3 -5 1 -10 -4 -10 -6 0 -11 5 -11 10 0 6 2 10 4 10 3 0 8 -4 11 -10z
m599 -6 c3 -8 2 -12 -4 -9 -6 3 -10 10 -10 16 0 14 7 11 14 -7z m666 6 c0 -5
-5 -10 -11 -10 -5 0 -7 5 -4 10 3 6 8 10 11 10 2 0 4 -4 4 -10z m-1145 -50 c3
-5 1 -10 -4 -10 -6 0 -11 5 -11 10 0 6 2 10 4 10 3 0 8 -4 11 -10z m379 -15
c-4 -8 -10 -15 -15 -15 -4 0 -6 7 -3 15 4 8 10 15 15 15 4 0 6 -7 3 -15z m218
-7 c-7 -7 -12 -8 -12 -2 0 14 12 26 19 19 2 -3 -1 -11 -7 -17z m-197 -48 c13
-6 15 -9 5 -9 -8 0 -22 4 -30 9 -18 12 -2 12 25 0z m230 0 c-3 -5 -12 -10 -18
-10 -7 0 -6 4 3 10 19 12 23 12 15 0z m-312 -7 c-7 -2 -21 -2 -30 0 -10 3 -4
5 12 5 17 0 24 -2 18 -5z m414 1 c-3 -3 -12 -4 -19 -1 -8 3 -5 6 6 6 11 1 17
-2 13 -5z m-274 -11 c-7 -2 -19 -2 -25 0 -7 3 -2 5 12 5 14 0 19 -2 13 -5z"/>
<path d="M1760 3222 c0 -5 7 -9 15 -9 8 0 15 4 15 9 0 4 -7 8 -15 8 -8 0 -15
-4 -15 -8z"/>
<path d="M2060 3249 c0 -5 5 -7 10 -4 6 3 10 8 10 11 0 2 -4 4 -10 4 -5 0 -10
-5 -10 -11z"/>
<path d="M2052 3189 c3 -8 1 -22 -3 -31 -6 -10 -5 -19 1 -23 5 -3 10 1 10 9 0
9 5 16 11 16 5 0 7 -5 3 -12 -4 -7 -3 -8 4 -4 9 5 9 13 2 26 -13 23 -35 38
-28 19z"/>
<path d="M1161 3094 c0 -11 3 -14 6 -6 3 7 2 16 -1 19 -3 4 -6 -2 -5 -13z"/>
<path d="M2500 3059 c0 -5 5 -7 10 -4 6 3 10 8 10 11 0 2 -4 4 -10 4 -5 0 -10
-5 -10 -11z"/>
<path d="M905 2700 c3 -5 8 -10 11 -10 2 0 4 5 4 10 0 6 -5 10 -11 10 -5 0 -7
-4 -4 -10z"/>
<path d="M1931 2367 c-52 -20 -55 -20 -120 -4 -36 10 -77 17 -91 16 -29 -1 74
-28 138 -36 27 -3 57 1 82 11 22 9 55 16 73 16 24 0 28 3 17 10 -21 14 -38 12
-99 -13z"/>
<path d="M1975 2325 l-30 -15 35 7 c19 4 45 7 58 7 12 1 22 4 22 9 0 12 -53 7
-85 -8z"/>
<path d="M1714 2320 c26 -5 55 -11 65 -15 11 -4 13 -3 5 5 -6 6 -35 13 -65 15
l-54 4 49 -9z"/>
<path d="M1680 2281 c-34 -9 -55 -51 -35 -70 12 -13 17 -13 32 1 30 25 52 28
96 13 93 -32 105 -9 17 35 -62 31 -69 33 -110 21z"/>
<path d="M1966 2259 c-44 -23 -56 -33 -47 -42 8 -8 19 -8 44 2 54 22 85 24
112 7 32 -21 45 -20 45 4 0 29 -35 60 -67 60 -16 -1 -54 -15 -87 -31z"/>
<path d="M1673 2156 c2 -6 14 -10 26 -9 13 2 20 -1 16 -7 -4 -6 10 -10 34 -10
39 0 61 13 41 25 -19 12 -121 13 -117 1z"/>
<path d="M1964 2157 c-24 -14 -5 -27 37 -27 27 0 38 4 33 11 -4 8 1 9 16 4 16
-5 21 -3 18 5 -4 14 -82 19 -104 7z"/>
<path d="M1850 2139 c-6 -10 -18 -19 -28 -19 -12 0 -13 -3 -4 -8 13 -9 14 -92
0 -92 -4 0 -8 8 -8 17 0 13 -3 14 -11 6 -14 -14 -5 -43 15 -43 7 0 26 -6 41
-14 25 -13 31 -12 66 6 28 14 39 26 38 42 l0 21 -9 -22 c-9 -23 -45 -37 -77
-31 -20 4 -29 58 -18 114 4 26 9 31 25 27 11 -3 20 -3 20 0 0 2 -9 7 -20 10
-13 3 -24 -1 -30 -14z"/>
<path d="M1656 2106 c7 -17 48 -46 65 -46 16 0 81 41 75 47 -3 3 -20 -4 -39
-16 l-34 -21 -33 25 c-40 29 -41 30 -34 11z"/>
<path d="M1970 2115 c0 -2 14 -12 31 -20 34 -18 80 -17 87 3 3 10 -2 10 -21 1
-19 -9 -31 -8 -55 5 -32 17 -42 19 -42 11z"/>
<path d="M1756 1921 c18 -17 112 -31 136 -21 l23 11 -23 -5 c-12 -2 -46 2 -75
10 -62 16 -75 17 -61 5z"/>
<path d="M1968 1903 c6 -2 18 -2 25 0 6 3 1 5 -13 5 -14 0 -19 -2 -12 -5z"/>
<path d="M3207 2305 c6 -17 25 -15 31 3 2 7 -5 12 -17 12 -14 0 -19 -5 -14
-15z"/>
<path d="M493 2310 c-13 -5 -23 -12 -23 -15 0 -4 6 -3 13 0 6 4 3 -1 -8 -10
-20 -17 -19 -17 7 -13 15 3 25 2 23 -3 -5 -6 26 -22 47 -24 3 0 10 -3 14 -7
15 -15 44 -8 44 10 0 42 -73 80 -117 62z m42 -10 c3 -5 1 -10 -4 -10 -6 0 -11
5 -11 10 0 6 2 10 4 10 3 0 8 -4 11 -10z m42 -52 c-3 -8 -6 -5 -6 6 -1 11 2
17 5 13 3 -3 4 -12 1 -19z"/>
<path d="M452 1901 c-16 -35 -18 -50 -10 -73 12 -35 5 -46 -18 -27 -12 10 -15
24 -11 54 5 37 5 39 -9 20 -51 -69 5 -147 93 -130 60 11 84 89 42 136 -18 21
-20 22 -14 4 16 -49 16 -72 1 -84 -19 -16 -46 -7 -46 15 0 9 8 23 17 30 17 12
17 15 -4 56 l-21 43 -20 -44z"/>
<path d="M3276 1912 c-18 -36 -21 -83 -5 -99 7 -7 7 -13 1 -17 -20 -12 -44 26
-39 61 7 40 -5 36 -23 -7 -27 -64 43 -124 116 -100 52 17 69 67 42 125 -18 39
-26 30 -14 -16 9 -36 8 -42 -9 -55 -10 -8 -24 -13 -30 -11 -18 6 -18 40 0 53
19 14 16 45 -8 78 -14 19 -15 19 -31 -12z"/>
<path d="M480 1467 c-31 -15 -36 -65 -8 -85 26 -19 97 4 111 36 10 21 8 27
-12 43 -27 22 -56 24 -91 6z m57 -3 c-3 -3 -12 -4 -19 -1 -8 3 -5 6 6 6 11 1
17 -2 13 -5z m0 -40 c-3 -3 -12 -4 -19 -1 -8 3 -5 6 6 6 11 1 17 -2 13 -5z
m-20 -30 c-3 -3 -12 -4 -19 -1 -8 3 -5 6 6 6 11 1 17 -2 13 -5z"/>
<path d="M670 1230 c0 -9 -9 -11 -30 -7 -16 4 -32 2 -35 -3 -4 -6 1 -7 11 -3
12 4 15 3 10 -5 -5 -8 1 -11 20 -10 26 2 43 22 30 35 -3 4 -6 1 -6 -7z"/>
<path d="M1620 943 c8 -2 37 -14 63 -24 27 -11 51 -18 53 -16 7 7 -92 47 -113
46 -14 0 -14 -2 -3 -6z"/>
<path d="M2148 933 c6 -2 18 -2 25 0 6 3 1 5 -13 5 -14 0 -19 -2 -12 -5z"/>
<path d="M2130 900 c-13 -8 -13 -10 2 -10 9 0 20 5 23 10 8 13 -5 13 -25 0z"/>
<path d="M2945 976 c-24 -17 -10 -58 28 -86 22 -17 32 -20 35 -11 4 11 6 11
13 0 6 -11 12 -10 27 4 23 21 18 62 -5 52 -10 -3 -13 -1 -10 9 12 31 -56 56
-88 32z m70 -14 c-3 -3 -11 0 -18 7 -9 10 -8 11 6 5 10 -3 15 -9 12 -12z"/>
<path d="M807 861 c-41 -36 -52 -52 -44 -60 26 -26 92 2 117 48 9 19 3 61 -10
61 -4 0 -32 -22 -63 -49z m38 -31 c-10 -11 -20 -18 -23 -16 -5 6 21 35 32 36
5 0 1 -9 -9 -20z"/>
<path d="M1203 575 c-16 -18 -16 -25 0 -25 7 0 13 9 14 20 2 23 2 24 -14 5z"/>
<path d="M2516 614 c-9 -8 -16 -21 -16 -29 0 -24 12 -45 22 -39 6 4 8 -2 3
-17 -3 -13 -3 -19 2 -12 9 13 63 6 63 -9 0 -6 7 -5 15 2 17 14 20 40 5 40 -5
0 -9 6 -7 13 1 7 -8 12 -22 11 -23 -1 -23 0 -5 13 19 14 19 15 0 29 -25 18
-41 18 -60 -2z m37 -46 c9 -31 2 -33 -11 -3 -6 14 -8 25 -3 25 5 0 11 -10 14
-22z"/>
<path d="M2540 510 c0 -7 24 -20 36 -20 13 0 1 19 -16 23 -11 3 -20 2 -20 -3z"/>
<path d="M2313 523 c-10 -3 -9 -11 2 -33 8 -15 11 -31 7 -35 -4 -4 0 -6 8 -3
8 3 16 13 18 24 3 16 1 16 -7 4 -6 -8 -11 -10 -11 -4 0 5 5 15 11 21 20 20 0
38 -28 26z"/>
<path d="M1460 510 c13 -8 13 -10 -1 -10 -10 0 -21 -16 -28 -42 -19 -62 -21
-77 -10 -84 16 -9 59 24 59 46 0 11 5 20 11 20 7 0 9 10 4 27 -8 33 -23 53
-39 53 -6 0 -4 -5 4 -10z m20 -40 c0 -5 -2 -10 -4 -10 -3 0 -8 5 -11 10 -3 6
-1 10 4 10 6 0 11 -4 11 -10z m-19 -73 c-10 -9 -11 -8 -5 6 3 10 9 15 12 12 3
-3 0 -11 -7 -18z"/>
<path d="M2565 3250 c-8 -13 35 -34 46 -23 6 6 0 14 -15 21 -15 7 -28 7 -31 2z"/>
<path d="M660 2849 c0 -5 5 -7 10 -4 6 3 10 8 10 11 0 2 -4 4 -10 4 -5 0 -10
-5 -10 -11z"/>
<path d="M1146 371 c-3 -4 6 -13 19 -19 30 -14 44 2 16 17 -24 13 -28 13 -35
2z"/>
</g>
</svg>
